<?xml version="1.0" encoding="UTF-8"?><svg id="Layer_2" xmlns="http://www.w3.org/2000/svg" viewBox="0 0 214 30"><g id="Components"><g id="c35c01c6-0ac0-4477-84ec-e7f84eeb2f5e_1"><path d="m196.283,23.307c1.369,0,2.562-.269,3.579-.806,1.017-.537,1.806-1.272,2.365-2.207.56-.935.84-1.999.84-3.192V5.545h-2.114v11.387c0,.852-.186,1.609-.558,2.271-.372.662-.908,1.182-1.607,1.56-.698.378-1.534.567-2.505.567-.972,0-1.806-.189-2.502-.567-.696-.378-1.231-.898-1.606-1.56s-.563-1.419-.563-2.271V5.545h-2.113v11.557c0,1.193.28,2.257.839,3.192.56.935,1.348,1.67,2.365,2.207,1.017.537,2.21.806,3.58.806Zm-19.212-15.887h3.716c.944,0,1.702.144,2.276.431.574.287.991.692,1.253,1.214.261.523.392,1.134.392,1.833s-.129,1.299-.388,1.802c-.259.503-.673.891-1.244,1.164-.571.272-1.323.409-2.255.409h-3.75v-6.853Zm0,15.58v-6.818h3.819c.112,0,.223-.002.333-.005l.11-.004,3.682,6.827h2.454l-3.944-7.199c.247-.085.48-.184.697-.297.869-.451,1.514-1.075,1.935-1.87.42-.796.63-1.708.63-2.736,0-1.029-.21-1.946-.63-2.753-.421-.807-1.069-1.442-1.944-1.905s-1.994-.695-3.357-.695h-5.898v17.455h2.113Zm-12.325.307c1.37,0,2.563-.269,3.58-.806,1.017-.537,1.805-1.272,2.365-2.207.56-.935.84-1.999.84-3.192V5.545h-2.114v11.387c0,.852-.186,1.609-.558,2.271-.373.662-.908,1.182-1.607,1.56-.699.378-1.534.567-2.506.567-.971,0-1.805-.189-2.501-.567-.696-.378-1.232-.898-1.607-1.56s-.562-1.419-.562-2.271V5.545h-2.114v11.557c0,1.193.28,2.257.84,3.192.559.935,1.348,1.67,2.365,2.207,1.017.537,2.21.806,3.579.806Zm-16.722-.068c1.386,0,2.615-.292,3.686-.874,1.071-.582,1.912-1.405,2.523-2.467.61-1.063.916-2.313.916-3.75v-1.875h-6.648v1.875h4.599l-.003.18c-.035.832-.206,1.574-.515,2.226l-.122.24c-.429.787-1.026,1.395-1.79,1.824-.764.429-1.646.643-2.646.643-1.08,0-2.051-.267-2.915-.801-.864-.534-1.548-1.321-2.054-2.361-.506-1.039-.759-2.315-.759-3.826,0-1.512.25-2.787.75-3.827.5-1.04,1.174-1.827,2.02-2.361.847-.534,1.787-.801,2.821-.801.631,0,1.211.085,1.739.256.528.17,1.001.417,1.419.741.418.324.778.715,1.082,1.172.304.458.55.973.738,1.547h2.181c-.159-.847-.448-1.618-.869-2.314-.42-.696-.944-1.295-1.572-1.798-.628-.503-1.341-.892-2.14-1.168-.798-.275-1.657-.413-2.578-.413-1.119,0-2.145.207-3.076.622-.932.415-1.739,1.011-2.421,1.79-.682.778-1.209,1.72-1.581,2.825-.372,1.105-.558,2.348-.558,3.729,0,1.841.325,3.432.976,4.772.65,1.341,1.559,2.375,2.727,3.103,1.168.727,2.524,1.091,4.07,1.091Zm-18.947-14.676h2.488c.71,0,1.3.103,1.769.311.468.207.818.51,1.048.907.23.398.345.887.345,1.466,0,.574-.115,1.054-.345,1.441-.23.386-.578.676-1.044.869-.466.193-1.051.29-1.756.29h-2.506l.001-5.284Zm0,14.437l-.001-6.187h2.694l3.307,6.187h4.073l-3.703-6.78.162-.072c.86-.403,1.536-.967,2.027-1.691l.142-.223c.5-.832.75-1.828.75-2.987,0-1.153-.245-2.158-.737-3.013-.491-.855-1.204-1.517-2.139-1.985-.935-.469-2.061-.704-3.379-.704h-6.887v17.455h3.691Zm-5.795,0v-3.043h-8.105v-4.167h7.465v-3.043h-7.465v-4.159h8.071v-3.043h-11.762v17.455h11.796Zm-22.851-14.437h2.489c.716,0,1.307.12,1.772.362.466.241.814.579,1.045,1.014.23.435.345.942.345,1.521,0,.574-.115,1.081-.345,1.522-.231.44-.577.784-1.04,1.031-.463.247-1.05.371-1.76.371h-2.506v-5.821Zm0,14.437v-5.659h3.102c1.219,0,2.275-.204,3.168-.613l.263-.129c.946-.494,1.669-1.184,2.169-2.071.5-.886.75-1.909.75-3.068s-.246-2.183-.737-3.072c-.492-.889-1.204-1.585-2.135-2.088-.932-.503-2.06-.755-3.384-.755h-6.886v17.455h3.69Zm-21.265,0v-11.403h.145l4.517,11.318h2.437l4.517-11.276h.145v11.361h3.58V5.545h-4.551l-4.807,11.728h-.205l-4.807-11.728h-4.551v17.455h3.58Zm-11.055-6.86h-4.43l2.149-6.606h.136l2.145,6.606Zm-6.662,6.86l1.295-3.98h6.302l1.293,3.98h3.954l-6.017-17.455h-4.756l-6.025,17.455h3.954Zm-12.108.239c1.119,0,2.123-.169,3.013-.507.889-.339,1.656-.799,2.301-1.381.645-.583,1.159-1.244,1.542-1.986.384-.741.624-1.513.721-2.314l-3.733-.017c-.086.466-.238.881-.456,1.244-.219.364-.493.672-.823.925-.329.253-.706.445-1.129.575-.423.131-.882.196-1.376.196-.881,0-1.657-.215-2.327-.647-.671-.432-1.192-1.071-1.564-1.918-.372-.846-.558-1.892-.558-3.136,0-1.21.184-2.24.554-3.09.369-.849.889-1.497,1.559-1.943.671-.446,1.458-.669,2.361-.669.5,0,.965.071,1.394.213s.808.347,1.137.614c.33.267.6.589.81.967.21.378.349.808.418,1.291h3.733c-.12-1.011-.391-1.909-.814-2.693-.424-.784-.97-1.447-1.641-1.99-.67-.543-1.439-.956-2.305-1.24-.867-.284-1.806-.426-2.817-.426-1.534,0-2.915.351-4.142,1.052-1.227.702-2.199,1.721-2.915,3.056-.716,1.335-1.074,2.954-1.074,4.858,0,1.897.354,3.514,1.061,4.849.708,1.335,1.674,2.355,2.898,3.06,1.224.704,2.615,1.057,4.172,1.057Z" style="fill:#222; stroke-width:0px;"/><path d="m16.021,18.333v-6.666h6.648c-1.287-2.943-4.228-5-7.65-5-4.608,0-8.344,3.731-8.344,8.333s3.736,8.333,8.344,8.333c3.422,0,6.363-2.057,7.65-5h-6.648Zm13.646,0c-1.518,6.68-7.5,11.667-14.648,11.667C6.724,30,0,23.284,0,15S6.724,0,15.019,0c7.148,0,13.13,4.987,14.648,11.667h-6.971v6.666h6.971Z" style="fill:#222; fill-rule:evenodd; stroke-width:0px;"/><g style="opacity:.4;"><path d="m211.135,9.487l.135-.072c.129-.079.237-.174.326-.287l.081-.119.068-.13c.08-.18.12-.385.12-.617,0-.289-.062-.54-.185-.753-.122-.2141-.301-.38-.534-.497-.187-.094-.405-.15-.653-.169l-.192-.007h-1.722v4.364h.923l-.001-1.546h.674l.827,1.546h1.018l-.927-1.696.042-.017Zm-.307-.865c-.057.096-.144.169-.261.217-.087.036-.191.059-.312.068l-.127.005h-.627l.001-1.321h.6219l.1281.004c.121.01.226.035.314.073.117.052.205.128.262.227.058.1.086.222.086.367,0,.143-.028.263-.086.36Z" style="fill:#222; stroke-width:0px;"/><path d="m210,5c-2.209,0-4,1.791-4,4s1.791,4,4,4,4-1.791,4-4-1.791-4-4-4Zm0,7c-1.657,0-3-1.343-3-3s1.343-3,3-3,3,1.343,3,3-1.343,3-3,3Z" style="fill:#222; stroke-width:0px;"/></g></g></g></svg>