<svg viewBox="0 0 542.13 95.36" xmlns="http://www.w3.org/2000/svg" xmlns:xlink="http://www.w3.org/1999/xlink"><clipPath id="a"><path d="m0 0h542.13v95.36h-542.13z"/></clipPath><g clip-path="url(#a)" fill="#000"><path d="m135.19 33.33a9.24 9.24 0 0 1 3.26-2 11.39 11.39 0 0 1 3.73-.64 13.3 13.3 0 0 1 6.26 1.36 9 9 0 0 1 3.9 4.44 5.18 5.18 0 0 0 1.51 2.17 3.48 3.48 0 0 0 2.11.65h2.46a3.24 3.24 0 0 0 2.28-.93 2.8 2.8 0 0 0 .93-2.33 11.61 11.61 0 0 0 -1.38-4.72 15.44 15.44 0 0 0 -3.77-4.65 21.5 21.5 0 0 0 -14.3-5 21.12 21.12 0 0 0 -8.35 1.56 18.13 18.13 0 0 0 -6.16 4.25 19.7 19.7 0 0 0 -3.93 6.3 26.94 26.94 0 0 0 -1.74 7.62 25.17 25.17 0 0 0 -.13 3.46c0 1.29.07 2.4.12 3.26a23.68 23.68 0 0 0 1.58 7.7 19.33 19.33 0 0 0 4 6.31 18.46 18.46 0 0 0 6.24 4.25 21.43 21.43 0 0 0 8.37 1.61 21.48 21.48 0 0 0 14.3-5 15.43 15.43 0 0 0 3.77-4.65 11.6 11.6 0 0 0 1.38-4.67 2.83 2.83 0 0 0 -.93-2.38 3.25 3.25 0 0 0 -2.28-.93h-2.42a3.49 3.49 0 0 0 -2.11.65 5.19 5.19 0 0 0 -1.51 2.16 9 9 0 0 1 -3.9 4.45 13.29 13.29 0 0 1 -6.26 1.36 11 11 0 0 1 -3.69-.64 9.29 9.29 0 0 1 -3.22-2 11.38 11.38 0 0 1 -2.48-3.47 15.67 15.67 0 0 1 -1.34-5.23 32.71 32.71 0 0 1 0-5.57 14.54 14.54 0 0 1 1.26-5.22 11.43 11.43 0 0 1 2.48-3.47"/><path d="m199.24 26.11a16.22 16.22 0 0 0 -5.76-3.32 22.43 22.43 0 0 0 -7.17-1.12 20.06 20.06 0 0 0 -6.34 1 21.37 21.37 0 0 0 -5.25 2.54 13.69 13.69 0 0 0 -3.72 3.63 8.93 8.93 0 0 0 -1.6 4.16 2.81 2.81 0 0 0 .92 2.38 3.24 3.24 0 0 0 2.29.93h2.46a5 5 0 0 0 2-.33 3.7 3.7 0 0 0 1.48-1.23 12.78 12.78 0 0 1 2.93-2.89 8.51 8.51 0 0 1 4.87-1.13 10.05 10.05 0 0 1 6.24 1.89 6.39 6.39 0 0 1 2.35 5.48v.22l-10.73 1.75a41.19 41.19 0 0 0 -6.68 1.68 20.62 20.62 0 0 0 -5.64 2.93 13.62 13.62 0 0 0 -3.89 4.5 13 13 0 0 0 -1.43 6.21 11.47 11.47 0 0 0 1.12 5 11.67 11.67 0 0 0 3.14 4 15.21 15.21 0 0 0 4.79 2.61 19.29 19.29 0 0 0 6.18 1 23.15 23.15 0 0 0 4.24-.43 22.89 22.89 0 0 0 4.37-1.29 16.55 16.55 0 0 0 3.8-2.14q.36-.28.69-.57v.39a3.24 3.24 0 0 0 3.21 3.21h3a3.24 3.24 0 0 0 3.21-3.21v-25a19 19 0 0 0 -1.32-7.41 15.21 15.21 0 0 0 -3.78-5.44m-4.32 21.65a11.52 11.52 0 0 1 -.86 4.53 9.87 9.87 0 0 1 -2.46 3.46 11.82 11.82 0 0 1 -3.9 2.3 14.68 14.68 0 0 1 -5.07.84 10.18 10.18 0 0 1 -3.24-.44 5.61 5.61 0 0 1 -2-1.11 4.36 4.36 0 0 1 -1.06-1.34 3.3 3.3 0 0 1 -.32-1.39c0-1.55.83-2.8 2.54-3.82a22.49 22.49 0 0 1 7.85-2.5l8.52-1.37z"/><path d="m257.66 21.67a19.56 19.56 0 0 0 -5 .57 14.49 14.49 0 0 0 -3.88 1.63 13.85 13.85 0 0 0 -3 2.48q-.74.81-1.43 1.69a14.05 14.05 0 0 0 -4.76-4.39 17.78 17.78 0 0 0 -8.77-2 15.73 15.73 0 0 0 -4.29.53 13.06 13.06 0 0 0 -3.24 1.38 12.37 12.37 0 0 0 -2.45 2 3.24 3.24 0 0 0 -3.21-3.06h-3a3.24 3.24 0 0 0 -3.21 3.21v38.21a3.24 3.24 0 0 0 3.21 3.21h3a3.1 3.1 0 0 0 2.26-.95 3.14 3.14 0 0 0 .95-2.27v-22.46c0-3.71.81-6.46 2.4-8.17a8.09 8.09 0 0 1 6.28-2.55c2.88 0 5 .86 6.44 2.63s2.23 4.72 2.23 8.67v21.89a3.24 3.24 0 0 0 3.21 3.21h3a3.24 3.24 0 0 0 3.21-3.21v-22.47c0-3.71.81-6.46 2.4-8.17a8.09 8.09 0 0 1 6.28-2.55c2.88 0 5 .86 6.44 2.63s2.27 4.71 2.27 8.64v21.92a3.14 3.14 0 0 0 .95 2.26 3.1 3.1 0 0 0 2.27 1h3a3.24 3.24 0 0 0 3.21-3.21v-22.77c0-5.93-1.34-10.7-4-14.18s-7-5.36-12.85-5.36"/><path d="m321.73 33.69a20.25 20.25 0 0 0 -4.14-6.47 17.82 17.82 0 0 0 -6.12-4.12 19.91 19.91 0 0 0 -7.55-1.43 15.92 15.92 0 0 0 -11.71 4 3.24 3.24 0 0 0 -3.21-3.18h-3a3.24 3.24 0 0 0 -3.21 3.21v53.8a3.24 3.24 0 0 0 3.21 3.21h3a3.24 3.24 0 0 0 3.21-3.21v-15.62a19.86 19.86 0 0 0 3.09 2.18 17.14 17.14 0 0 0 8.62 1.9 19.89 19.89 0 0 0 7.55-1.43 18.1 18.1 0 0 0 6.12-4.08 19.73 19.73 0 0 0 4.14-6.45 26 26 0 0 0 1.79-8.43c.06-.84.08-1.76.08-2.73s0-1.89-.08-2.72a26 26 0 0 0 -1.79-8.44m-7.66 13.37a13.79 13.79 0 0 1 -3.19 8.72 9.89 9.89 0 0 1 -7.79 3.11 10.48 10.48 0 0 1 -7.71-2.88c-2-1.91-3-4.7-3.18-8.33-.05-.79-.08-1.83-.08-3.17s0-2.39.08-3.19a10.85 10.85 0 0 1 3.21-7.77 10.6 10.6 0 0 1 7.67-2.84 9.88 9.88 0 0 1 7.79 3.11 13.77 13.77 0 0 1 3.19 8.71c.05 1.5.05 3 0 4.51"/><path d="m360.71 46a16.19 16.19 0 0 0 -4.37-3 28.2 28.2 0 0 0 -6.54-2.17q-3.6-.82-6-1.39a19.34 19.34 0 0 1 -3.7-1.2 4.3 4.3 0 0 1 -1.74-1.31 3.35 3.35 0 0 1 -.48-1.93 3.3 3.3 0 0 1 1.85-3 10.92 10.92 0 0 1 5.6-1.25 13.51 13.51 0 0 1 5.37.85 7.1 7.1 0 0 1 2.78 2 3.52 3.52 0 0 0 1.78 1.29 5.24 5.24 0 0 0 1.47.25h2.71a3.24 3.24 0 0 0 2.28-.93 2.81 2.81 0 0 0 .93-2.34 7.24 7.24 0 0 0 -1.32-3.57 12.37 12.37 0 0 0 -3.4-3.3 19.5 19.5 0 0 0 -5.32-2.43 25.55 25.55 0 0 0 -7.3-.94 23.6 23.6 0 0 0 -7.32 1 15.18 15.18 0 0 0 -5.31 2.9 12.21 12.21 0 0 0 -4.27 9.47 12.6 12.6 0 0 0 2.89 8.22c1.92 2.33 5.24 4 9.88 5 2.32.49 4.39 1 6.16 1.39a28.19 28.19 0 0 1 4.23 1.34 5.86 5.86 0 0 1 2.21 1.49 2.89 2.89 0 0 1 .63 1.94 2.54 2.54 0 0 1 -.6 1.63 6.1 6.1 0 0 1 -1.87 1.51 11.3 11.3 0 0 1 -2.86 1.05 14.76 14.76 0 0 1 -3.34.38 14.49 14.49 0 0 1 -5.59-.9 7.49 7.49 0 0 1 -3.15-2.5 3 3 0 0 0 -1.86-1.35 7.28 7.28 0 0 0 -1.33-.14h-3a3.25 3.25 0 0 0 -2.35 1 2.85 2.85 0 0 0 -.86 2.32 7.13 7.13 0 0 0 1.4 3.62 13.25 13.25 0 0 0 3.68 3.38 23 23 0 0 0 5.57 2.53 24.79 24.79 0 0 0 7.44 1 23.48 23.48 0 0 0 7.49-1.12 19.16 19.16 0 0 0 5.67-2.95 13.24 13.24 0 0 0 3.68-4.35 11.28 11.28 0 0 0 1.3-5.22 13.54 13.54 0 0 0 -.71-4.38 10.38 10.38 0 0 0 -2.44-3.9"/><path d="m409 33.69a20.25 20.25 0 0 0 -4.14-6.47 17.82 17.82 0 0 0 -6.12-4.12 19.91 19.91 0 0 0 -7.55-1.43 15.92 15.92 0 0 0 -11.71 4 3.24 3.24 0 0 0 -3.21-3.21h-3a3.24 3.24 0 0 0 -3.27 3.25v53.79a3.24 3.24 0 0 0 3.21 3.21h3a3.24 3.24 0 0 0 3.21-3.21v-15.62a19.86 19.86 0 0 0 3.09 2.18 17.14 17.14 0 0 0 8.62 1.9 19.89 19.89 0 0 0 7.55-1.43 18.1 18.1 0 0 0 6.12-4.08 19.73 19.73 0 0 0 4.2-6.45 26 26 0 0 0 1.79-8.43c.06-.84.08-1.76.08-2.73s0-1.89-.08-2.72a26 26 0 0 0 -1.79-8.43m-7.66 13.37a13.79 13.79 0 0 1 -3.19 8.72 9.89 9.89 0 0 1 -7.79 3.11 10.48 10.48 0 0 1 -7.73-2.89c-2-1.91-3-4.7-3.18-8.33-.05-.79-.08-1.83-.08-3.17s0-2.39.08-3.19a10.85 10.85 0 0 1 3.21-7.77 10.6 10.6 0 0 1 7.67-2.84 9.88 9.88 0 0 1 7.79 3.11 13.77 13.77 0 0 1 3.19 8.71c.05 1.5.05 3 0 4.51"/><path d="m447.06 26.11a16.21 16.21 0 0 0 -5.76-3.32 22.42 22.42 0 0 0 -7.17-1.12 20.07 20.07 0 0 0 -6.34 1 21.38 21.38 0 0 0 -5.25 2.54 13.69 13.69 0 0 0 -3.71 3.63 8.92 8.92 0 0 0 -1.6 4.16 2.81 2.81 0 0 0 .92 2.38 3.24 3.24 0 0 0 2.29.93h2.46a5 5 0 0 0 2-.33 3.69 3.69 0 0 0 1.48-1.23 12.77 12.77 0 0 1 2.93-2.89 8.51 8.51 0 0 1 4.87-1.13 10.06 10.06 0 0 1 6.24 1.89 6.39 6.39 0 0 1 2.35 5.48v.22l-10.77 1.73a41.18 41.18 0 0 0 -6.68 1.68 20.66 20.66 0 0 0 -5.64 2.93 13.62 13.62 0 0 0 -3.89 4.51 13.05 13.05 0 0 0 -1.43 6.21 11.5 11.5 0 0 0 1.12 5 11.69 11.69 0 0 0 3.14 4 15.21 15.21 0 0 0 4.81 2.62 19.28 19.28 0 0 0 6.18 1 23.18 23.18 0 0 0 4.25-.43 22.88 22.88 0 0 0 4.37-1.29 16.53 16.53 0 0 0 3.77-2.18c.24-.19.47-.38.69-.58v.4a3.14 3.14 0 0 0 .95 2.26 3.1 3.1 0 0 0 2.27 1h3a3.24 3.24 0 0 0 3.21-3.21v-25a19 19 0 0 0 -1.35-7.36 15.2 15.2 0 0 0 -3.77-5.44m-4.34 21.65a11.52 11.52 0 0 1 -.86 4.53 9.88 9.88 0 0 1 -2.46 3.46 11.8 11.8 0 0 1 -3.9 2.3 14.68 14.68 0 0 1 -5.07.84 10.19 10.19 0 0 1 -3.24-.44 5.64 5.64 0 0 1 -2-1.1 4.36 4.36 0 0 1 -1.07-1.4 3.28 3.28 0 0 1 -.32-1.39c0-1.55.83-2.8 2.54-3.82a22.48 22.48 0 0 1 7.85-2.5l8.52-1.37z"/><path d="m469.26 36.8a11.46 11.46 0 0 1 2.48-3.47 9.25 9.25 0 0 1 3.26-2 11.43 11.43 0 0 1 3.73-.64 13.3 13.3 0 0 1 6.27 1.39 9 9 0 0 1 3.9 4.44 5.19 5.19 0 0 0 1.51 2.17 3.49 3.49 0 0 0 2.11.64h2.48a3.24 3.24 0 0 0 2.28-.93 2.8 2.8 0 0 0 .93-2.33 11.66 11.66 0 0 0 -1.38-4.72 15.47 15.47 0 0 0 -3.83-4.64 21.49 21.49 0 0 0 -14.3-5 21.12 21.12 0 0 0 -8.35 1.56 18.11 18.11 0 0 0 -6.16 4.25 19.71 19.71 0 0 0 -3.93 6.3 27 27 0 0 0 -1.74 7.63 25.62 25.62 0 0 0 -.13 3.46c0 1.29.07 2.4.12 3.26a23.72 23.72 0 0 0 1.59 7.7 19.3 19.3 0 0 0 4 6.31 18.45 18.45 0 0 0 6.24 4.25 21.43 21.43 0 0 0 8.39 1.57 21.49 21.49 0 0 0 14.3-5 15.43 15.43 0 0 0 3.77-4.65 11.61 11.61 0 0 0 1.38-4.67 2.83 2.83 0 0 0 -.93-2.37 3.24 3.24 0 0 0 -2.28-.93h-2.46a3.49 3.49 0 0 0 -2.11.64 5.18 5.18 0 0 0 -1.51 2.16 9 9 0 0 1 -3.9 4.45 13.3 13.3 0 0 1 -6.26 1.36 11 11 0 0 1 -3.69-.64 9.29 9.29 0 0 1 -3.22-2 11.43 11.43 0 0 1 -2.48-3.47 15.68 15.68 0 0 1 -1.34-5.29 32.94 32.94 0 0 1 0-5.59 14.57 14.57 0 0 1 1.26-5.22"/><path d="m540.77 34.49a19.52 19.52 0 0 0 -4-6.91 17.41 17.41 0 0 0 -6.3-4.39 21.74 21.74 0 0 0 -8.29-1.51 20.08 20.08 0 0 0 -7.81 1.47 18 18 0 0 0 -6 4.08 21 21 0 0 0 -4 6 22.67 22.67 0 0 0 -1.89 7.35 35.89 35.89 0 0 0 0 7.73 24.35 24.35 0 0 0 1.88 7.74 20.7 20.7 0 0 0 4.09 6.2 18.76 18.76 0 0 0 6 4.16 19.32 19.32 0 0 0 7.74 1.59 26.34 26.34 0 0 0 7.89-1.07 21 21 0 0 0 5.68-2.68 13.27 13.27 0 0 0 3.59-3.55 9.72 9.72 0 0 0 1.54-3.7 2.57 2.57 0 0 0 -.89-2.48 3.39 3.39 0 0 0 -2.3-.91h-2.46a4.31 4.31 0 0 0 -1.92.35 5.74 5.74 0 0 0 -1.45 1.13 11.28 11.28 0 0 1 -9.67 3.77 9.9 9.9 0 0 1 -10.46-10.05h27.18a3.24 3.24 0 0 0 3.21-3.21v-2.18a27.75 27.75 0 0 0 -1.37-8.93m-29 5.47a10.8 10.8 0 0 1 .85-3.35 9.37 9.37 0 0 1 2.22-3.15 10.17 10.17 0 0 1 3.29-2 11.44 11.44 0 0 1 4.07-.71 10.67 10.67 0 0 1 7.72 2.72 9.21 9.21 0 0 1 2.82 6.53z"/><path d="m53.37 1.56c-.19-.13-.38-.26-.58-.37a8.42 8.42 0 0 0 -4.32-1.19h-.15a8.42 8.42 0 0 0 -4.32 1.19c-.2.12-.39.24-.58.37a96.83 96.83 0 0 0 -43.42 75.03 8.56 8.56 0 0 0 0 .88 8.51 8.51 0 0 0 5 7.73 96.56 96.56 0 0 0 43.26 10.16h.28a96.57 96.57 0 0 0 43.24-10.16 8.56 8.56 0 0 0 .8-.41 8.46 8.46 0 0 0 4.22-7.31 8.56 8.56 0 0 0 0-.88 96.83 96.83 0 0 0 -43.38-75"/></g></svg>