<svg xmlns="http://www.w3.org/2000/svg" viewBox="0 0 2000 325">
<path d="M1145.26 96.3398C1157.32 78.1366 1169.72 60.1606 1181.92 42.0584C1186.66 35.0144 1195.91 35.2669 1201.49 43.1945C1214.49 61.5997 1227.18 80.2321 1239.96 98.814C1252.48 117.017 1264.95 135.22 1277.4 153.474C1290.9 173.293 1304.36 193.137 1317.8 213.032C1328.56 228.963 1339.27 244.919 1349.84 260.951C1350.97 262.668 1353.62 266.758 1356.63 271.404C1362.02 279.71 1356.19 290.844 1346.52 290.743C1320.56 290.491 1279.59 290.238 1262.64 290.869C1256.41 291.096 1252.84 288.85 1249.59 283.472C1233.54 256.887 1217.05 230.554 1200.6 204.221C1196.75 198.061 1192.15 198.162 1188.06 204.625C1176.6 222.651 1165.31 240.804 1154.09 258.982C1148.36 268.248 1143.07 277.766 1137.22 286.956C1136.06 288.748 1133.34 290.642 1131.32 290.642C1102.98 290.945 1074.65 291.021 1046.33 290.996C1033.19 290.996 1026.47 279.407 1033.55 268.324C1049.13 243.91 1124.05 128.429 1145.28 96.365L1145.26 96.3398ZM1175.49 201.999C1176.77 199.853 1176.96 195.99 1175.83 193.92C1175.11 192.607 1170.49 192.102 1168.49 193.062C1162.95 195.687 1157.82 199.222 1152.6 202.504C1133.15 214.648 1112.2 223.586 1090.61 231.16C1082.86 233.886 1081.44 235.931 1085.91 242.445C1093.62 253.68 1102.16 264.486 1111.43 274.459C1117.96 281.503 1121.45 280.846 1126.74 272.944C1135.58 259.765 1169.02 213.007 1175.49 201.974V201.999Z" fill="#C74F2D"/>
<path d="M1883.77 42.4955C1877.13 40.7283 1870.03 37.6357 1863.61 38.2984C1844.61 39.6238 1825.83 35.6476 1806.82 38.2984C1800.86 39.182 1795.14 39.182 1789.18 38.5193C1774.76 37.1939 1760.1 34.9849 1744.53 40.9492C1741.78 61.0509 1741.55 81.1527 1741.32 101.254C1740.86 151.619 1740.86 201.984 1741.55 252.349C1741.78 264.498 1739.72 277.531 1747.5 289.018C1765.14 292.552 1782.08 293.878 1799.26 287.693C1807.28 265.161 1798.8 241.967 1805.67 216.784C1821.7 216.121 1836.36 215.238 1851.02 215.238C1867.97 215.238 1883.77 211.924 1899.11 205.297C1924.3 194.253 1941.25 176.581 1947.89 150.073C1960.26 99.4872 1935.07 57.0748 1883.77 42.4955ZM1889.95 129.75C1887.66 146.539 1875.75 160.455 1858.81 162.443C1855.37 162.885 1851.93 163.327 1848.5 163.548C1849.19 165.094 1812.31 163.327 1804.99 161.339C1801.09 137.482 1801.09 115.392 1804.07 92.1976C1826.97 84.9079 1848.5 86.4542 1869.8 95.0692C1884 101.034 1891.78 115.171 1889.95 129.75Z" fill="#fff"/>
<path d="M1671.61 220.177C1671.61 185.762 1671.6 151.569 1671.84 117.154C1671.37 117.154 1671.37 109.383 1671.84 108.494C1671.84 90.7318 1671.84 72.9692 1671.84 55.2067C1671.84 49.6558 1669.5 44.105 1667.86 37.222C1651.47 37.222 1636.49 37.222 1621.28 37.222C1611.44 37.222 1604.42 41.6627 1599.51 49.6558C1592.48 60.5354 1584.99 70.9709 1577.97 81.6285C1567.9 96.7267 1558.31 111.825 1548.01 126.701C1545.43 130.476 1543.79 136.248 1534.9 136.248C1530.22 129.587 1524.6 122.038 1519.45 114.489C1505.87 93.8403 1492.06 72.9692 1478.95 51.8762C1472.86 42.3288 1462.33 37 1450.63 37C1439.16 37 1427.45 37.222 1415.75 37.4441C1408.26 37.4441 1404.51 42.5508 1402.4 48.1016C1401 51.8762 1401.23 56.3168 1401.23 60.5354C1401.47 79.1861 1402.17 97.6148 1402.17 116.266C1401.94 156.009 1401.47 195.753 1401 235.497C1401 249.929 1401 264.139 1401.47 278.571C1401.7 285.898 1405.45 290.117 1412.7 290.561C1427.45 291.671 1442.43 293.447 1457.18 289.895C1458.59 286.342 1459.99 283.9 1459.99 281.68C1460.69 258.81 1461.16 235.941 1461.39 213.294C1461.63 193.977 1461.39 174.438 1461.16 155.121C1461.16 151.125 1461.86 147.572 1463.74 144.464C1463.74 142.909 1464.2 140.467 1464.2 140.467L1465.61 138.913C1465.61 138.913 1468.89 138.469 1469.35 138.247C1469.82 138.025 1470.29 138.247 1470.52 138.691C1470.76 139.135 1471.23 139.801 1471.23 139.801L1471.46 140.689C1471.46 140.689 1473.8 142.687 1474.27 144.464C1477.08 148.238 1480.82 156.231 1480.82 156.231L1481.99 157.564C1481.99 157.564 1512.66 202.414 1528.34 224.617C1530.45 227.726 1534.9 229.28 1538.88 231.944C1552.45 216.402 1563.46 201.082 1573.29 185.318C1592.48 154.677 1596.23 150.014 1609.57 143.131C1613.32 154.899 1610.98 166.667 1611.44 178.213C1611.91 190.868 1611.44 203.524 1611.44 216.18C1611.44 227.948 1611.21 239.938 1611.68 251.705C1612.15 264.139 1608.64 277.017 1614.49 289.007C1632.98 292.337 1637.19 291.893 1670.67 283.012C1671.14 274.353 1671.84 265.027 1671.84 255.924C1672.31 243.712 1671.61 231.944 1671.61 220.177Z" fill="#fff"/>
<path d="M955.853 211.43C965.47 220.421 973.521 227.699 981.125 235.406C989.176 243.755 988.952 248.892 980.454 255.956C962.339 271.369 941.987 283.143 917.833 286.996C888.983 291.492 860.133 292.348 832.848 279.504C788.343 258.953 760.835 227.271 755.915 178.678C752.56 146.568 758.151 117.455 777.385 90.4823C799.973 58.8004 831.73 41.675 870.421 36.3233C898.6 32.4701 926.332 37.1796 952.722 48.5251C969.719 55.8034 975.086 60.5129 985.15 75.9257C977.77 90.2683 966.812 102.042 952.275 112.959C944.223 108.036 936.62 103.112 928.568 98.6169C900.165 82.99 869.302 84.4884 844.702 102.256C835.532 108.892 829.046 117.241 823.903 126.66C819.653 134.58 814.286 142.073 812.049 150.421C810.26 156.843 810.931 164.55 812.72 171.186C814.957 179.748 818.759 188.097 822.561 196.232C838.887 230.482 876.459 246.109 914.031 233.693C921.188 231.339 927.897 227.485 934.383 223.846C941.092 220.421 947.354 216.354 955.853 211.43Z" fill="#fff"/>
<path d="M644.692 42.4955C638.05 40.7283 630.951 37.6357 624.538 38.2984C605.53 39.6238 586.75 35.6476 567.742 38.2984C561.788 39.182 556.062 39.182 550.108 38.5193C535.68 37.1939 521.022 34.9849 505.449 40.9492C502.701 61.0509 502.472 81.1527 502.243 101.254C501.785 151.619 501.785 201.984 502.472 252.349C502.701 264.498 500.64 277.531 508.427 289.018C526.061 292.552 543.008 293.878 560.184 287.693C568.2 265.161 559.726 241.967 566.597 216.784C582.628 216.121 597.285 215.238 611.942 215.238C628.89 215.238 644.692 211.924 660.036 205.297C685.228 194.253 702.175 176.581 708.817 150.073C721.184 99.4872 695.992 57.0748 644.692 42.4955ZM650.875 129.75C648.585 146.539 636.676 160.455 619.729 162.443C616.294 162.885 612.858 163.327 609.423 163.548C610.11 165.094 573.238 163.327 565.91 161.339C562.017 137.482 562.017 115.392 564.994 92.1976C587.896 84.9079 609.423 86.4542 630.722 95.0692C644.921 101.034 652.707 115.171 650.875 129.75Z" fill="#fff"/>
<path d="M416.932 46.2522C416.932 44.0356 414.668 41.8189 413.31 39.159C398.819 35.3907 384.328 37.6073 369.838 38.0507C363.498 38.2723 359.423 43.1489 358.291 49.7988C357.838 52.2371 357.838 54.8971 357.838 57.3354C357.838 128.268 358.064 199.2 358.064 270.132C358.064 276.782 357.838 283.654 364.178 290.082C380.253 292.52 397.008 293.185 414.442 288.752C415.8 285.205 417.838 282.102 417.838 278.999C417.838 201.417 417.611 123.834 416.932 46.2522Z" fill="#fff"/>
<path d="M272.312 126.571C272.312 110.603 272.083 94.4135 272.771 78.4455C273.229 64.917 271.395 52.0539 266.811 38.5254C248.702 37.1948 231.739 35.1988 213.859 40.2997C206.065 71.5704 217.985 103.285 209.045 133.225C188.644 139.656 138.672 140.322 112.54 134.555C105.892 120.583 108.414 105.059 107.267 90.1998C105.892 74.4535 112.081 58.4855 105.204 41.8521C96.0352 40.2997 86.866 38.0819 77.6968 37.4165C70.1323 36.7512 62.3385 38.0819 53.857 38.5254C44.0002 66.4695 49.7309 94.6353 49.0432 122.136C47.8971 149.858 48.3555 177.802 49.2724 205.746C50.1894 233.247 44.6879 260.969 51.3355 288.026C76.3215 293.57 88.6998 293.349 106.58 287.139C113.457 256.977 104.975 225.484 110.018 194.657C138.672 186.895 166.638 192.218 194.374 191.331C199.188 191.109 204.002 194.436 209.045 196.21C214.776 226.593 207.67 257.421 214.776 287.139C215.234 286.917 215.922 286.695 216.61 287.139C218.673 288.469 220.965 289.357 223.028 290.465C238.616 292.24 253.057 292.905 267.269 288.691C273.229 268.731 274.375 267.622 270.937 255.425C268.415 246.775 269.332 239.013 270.937 230.807C274.834 212.4 269.332 149.415 273 144.757C272.771 138.547 272.312 132.559 272.312 126.571Z" fill="#fff"/>
</svg>