<svg width="358" height="108" viewBox="0 0 358 108" fill="none" xmlns="http://www.w3.org/2000/svg">
<path d="M136.537 41.5079H148.828L134.107 57.8326L150.273 75.9517H138.204C137.918 75.9517 125.357 61.2309 125.357 61.2309V75.9358H115.654V31.4717H125.357V55.3235L136.537 41.5079Z" fill="white"/>
<path fill-rule="evenodd" clip-rule="evenodd" d="M149.447 58.6424C149.447 48.6221 157.562 40.4915 167.566 40.4915C177.571 40.4915 185.685 48.6221 185.685 58.6424C185.685 68.6628 177.571 76.7934 167.566 76.7934C157.562 76.7934 149.447 68.6786 149.447 58.6424ZM158.975 58.6583C158.975 63.6605 162.818 67.71 167.566 67.71C172.314 67.71 176.157 63.6605 176.157 58.6583C176.157 53.6561 172.314 49.6067 167.566 49.6067C162.818 49.6067 158.975 53.6561 158.975 58.6583Z" fill="white"/>
<path fill-rule="evenodd" clip-rule="evenodd" d="M251.699 58.6424C251.699 48.6221 259.814 40.4915 269.818 40.4915C279.822 40.4915 287.937 48.6221 287.937 58.6424C287.937 68.6628 279.822 76.7934 269.818 76.7934C259.814 76.7934 251.699 68.6786 251.699 58.6424ZM261.227 58.6583C261.227 63.6923 265.07 67.7735 269.818 67.7735C274.566 67.7735 278.409 63.6923 278.409 58.6583C278.409 53.6243 274.566 49.5432 269.818 49.5432C265.07 49.5432 261.227 53.6243 261.227 58.6583Z" fill="white"/>
<path fill-rule="evenodd" clip-rule="evenodd" d="M311.201 40.4915C301.197 40.4915 293.082 48.6221 293.082 58.6424C293.082 68.6786 301.197 76.7934 311.201 76.7934C321.206 76.7934 329.321 68.6628 329.321 58.6424C329.321 48.6221 321.206 40.4915 311.201 40.4915ZM311.201 67.7735C306.453 67.7735 302.61 63.6923 302.61 58.6583C302.61 53.6243 306.453 49.5432 311.201 49.5432C315.95 49.5432 319.793 53.6243 319.793 58.6583C319.793 63.6923 315.934 67.7735 311.201 67.7735Z" fill="white"/>
<path d="M356.047 68.234C352.41 68.8534 350.346 67.3924 349.488 66.5031C348.599 65.5821 347.948 64.0893 347.948 63.1207V49.6702H357V41.5555H347.948V32.1863H338.356V41.5555H331.798V49.6702H338.356V63.1048C338.356 70.6478 344.486 76.7775 352.029 76.7775C352.029 76.7775 355.539 76.9045 358 75.8882L356.047 68.234Z" fill="white"/>
<path d="M201.645 58.0867C201.613 62.422 201.645 75.8883 201.645 75.8883V75.9042H191.99V41.5873H200.041L201.216 45.8114C202.9 43.1912 205.027 41.5715 208.188 40.9998C211.713 40.3646 214.762 40.7616 217.493 42.1908C219.24 43.1118 220.622 44.5569 221.606 46.4943C221.622 46.4625 221.654 46.4149 221.686 46.3831C222.082 45.8434 222.48 45.3031 222.908 44.7951C224.608 42.7942 226.831 41.5397 229.515 41.0315C232.182 40.5393 234.739 40.6345 237.137 41.3491C239.884 42.159 241.996 43.8741 243.394 46.4308C244.442 48.3364 245.045 50.5119 245.252 53.0527C245.347 54.2914 245.395 55.403 245.395 56.4828V75.92H235.787C235.787 75.92 235.819 60.9293 235.787 56.0541C235.771 54.5614 235.422 53.2274 234.787 52.0841C234.12 50.9089 233.183 50.1943 231.897 49.8767C230.309 49.4797 228.975 49.5433 227.577 50.0832C225.783 50.766 224.576 52.1476 223.877 54.2914C223.512 55.403 223.337 56.6575 223.337 58.0867V75.8883H213.952V56.324C213.952 55.1489 213.889 53.7674 213.349 52.4969C212.602 50.7025 211.252 49.7656 209.204 49.6385C207.664 49.5433 206.361 49.7656 205.218 50.3055C203.392 51.1789 202.534 52.6875 202.026 54.8313C201.788 55.8635 201.645 56.9592 201.645 58.0867Z" fill="white"/>
<path d="M0 54C0 27.5391 21.5391 6 48 6C74.4768 6 96 27.5391 96 54C96 64.6508 92.5816 74.7003 86.1246 83.1355L62.0534 59.0643C62.6548 57.4184 62.9555 55.7092 62.9555 53.9842C62.9555 45.7389 56.2453 39.0287 48 39.0287C39.7547 39.0287 33.0445 45.7389 33.0445 53.9842C33.0445 55.7092 33.3452 57.4184 33.9466 59.0643L9.87537 83.1355C3.4184 74.7161 0 64.6508 0 54Z" fill="white"/>
<path d="M39.2008 65.3155L48 51.5945L56.7992 65.3155L80.6489 89.1652C71.7389 97.4421 60.1702 102 48 102C35.8299 102 24.2611 97.4421 15.3512 89.1652L39.2008 65.3155Z" fill="white"/>
</svg>
