<svg width="570" height="201" viewBox="0 0 570 201" fill="none" xmlns="http://www.w3.org/2000/svg">
<g clip-path="url(#clip0_606_7)">
<path fill-rule="evenodd" clip-rule="evenodd" d="M392.071 112.269C392.071 93.8119 377.108 78.8492 358.651 78.8492C357.386 78.8492 356.139 78.9263 354.91 79.0634C356.104 74.1866 356.751 69.0947 356.751 63.8501C356.751 28.6407 328.208 0.0976562 292.999 0.0976562C258.204 0.0976562 229.94 27.9761 229.277 62.612C225.806 61.7017 222.165 61.2133 218.409 61.2133C194.802 61.2133 175.665 80.3501 175.665 103.957C175.665 116.825 181.36 128.356 190.358 136.193H238.05L288.848 48.2064L339.648 136.193H381.975C388.2 130.123 392.071 121.65 392.071 112.269Z" fill="#017146"/>
<path fill-rule="evenodd" clip-rule="evenodd" d="M288.849 94.6958V136.193H312.807L288.849 94.6958Z" fill="#F8C535"/>
<path fill-rule="evenodd" clip-rule="evenodd" d="M0 191.455V158.605H6.45666L22.198 179.013V158.605H29.2206V191.455H23.2819L7.02216 170.482V191.455H0Z" fill="#017146"/>
<path fill-rule="evenodd" clip-rule="evenodd" d="M51.6078 183.819C52.8334 182.641 53.4459 181.227 53.4459 179.578C53.4459 177.928 52.8334 176.514 51.6078 175.383C50.4298 174.205 48.9685 173.639 47.2249 173.639C45.528 173.639 44.1142 174.205 42.9357 175.383C41.7577 176.514 41.1922 177.928 41.1922 179.578C41.1922 181.227 41.7577 182.641 42.9357 183.819C44.1142 184.951 45.528 185.516 47.2249 185.516C48.9685 185.516 50.4298 184.951 51.6078 183.819ZM37.5159 170.859C39.7784 168.455 42.6059 167.277 45.9523 167.277C49.534 167.277 52.3149 168.738 53.0215 170.811V167.701H60.0442V183.113C60.0442 184.997 60.5156 185.752 61.7877 185.752C62.1175 185.752 62.5419 185.705 62.9663 185.657V191.502C62.2121 191.737 61.1752 191.878 59.8085 191.878C58.2531 191.878 56.9335 191.596 55.9441 191.03C54.8601 190.323 54.153 189.475 53.8227 188.485C52.2674 190.794 49.6756 191.925 45.9523 191.925C42.6059 191.925 39.7784 190.747 37.5159 188.391C35.301 185.987 34.1695 183.065 34.1695 179.578C34.1695 176.137 35.301 173.216 37.5159 170.859Z" fill="#017146"/>
<path fill-rule="evenodd" clip-rule="evenodd" d="M67.2084 174.064H64.0977V167.701H67.2084V158.605H74.0424V167.701H79.321V174.064H74.0424V182.547C74.0424 184.809 74.9377 185.705 77.0585 185.705C77.4359 185.705 78.0484 185.658 78.8496 185.517V191.738C77.9068 191.973 76.7758 192.068 75.4091 192.068C69.9418 192.068 67.2084 189.239 67.2084 183.584V174.064Z" fill="#017146"/>
<path fill-rule="evenodd" clip-rule="evenodd" d="M82.6201 167.701H89.6427V181.274C89.6427 184.055 91.1035 185.752 93.7428 185.752C96.3351 185.752 98.1257 183.819 98.1257 181.038V167.701H105.148V183.113C105.148 184.997 105.619 185.752 106.892 185.752C107.222 185.752 107.646 185.705 108.07 185.657V191.502C107.316 191.737 106.279 191.878 104.913 191.878C103.357 191.878 102.038 191.596 101.048 191.03C99.9638 190.323 99.2572 189.475 98.9269 188.485C97.7489 190.794 95.3923 191.973 91.9518 191.973C85.9665 191.973 82.6201 188.297 82.6201 182.122V167.701Z" fill="#017146"/>
<path fill-rule="evenodd" clip-rule="evenodd" d="M111.323 167.701H118.345V181.274C118.345 184.055 119.806 185.752 122.446 185.752C125.038 185.752 126.828 183.819 126.828 181.038V167.701H133.851V183.113C133.851 184.997 134.322 185.752 135.595 185.752C135.925 185.752 136.349 185.705 136.773 185.657V191.502C136.019 191.737 134.982 191.878 133.615 191.878C132.06 191.878 130.74 191.596 129.75 191.03C128.666 190.323 127.96 189.475 127.63 188.485C126.452 190.794 124.095 191.973 120.654 191.973C114.669 191.973 111.323 188.297 111.323 182.122V167.701Z" fill="#017146"/>
<path fill-rule="evenodd" clip-rule="evenodd" d="M140.355 191.454V167.701H147.377V170.953C148.461 168.549 151.007 167.183 154.259 167.183C154.73 167.183 155.342 167.23 156.097 167.324V173.922C155.389 173.781 154.588 173.686 153.74 173.686C149.734 173.686 147.377 175.949 147.377 179.86V191.454H140.355Z" fill="#017146"/>
<path fill-rule="evenodd" clip-rule="evenodd" d="M160.056 191.455V158.605H167.078V176.75L174.902 167.701H183.055L173.582 178.447L183.857 191.455H175.939L169.058 182.689L167.078 184.809V191.455H160.056Z" fill="#017146"/>
<path fill-rule="evenodd" clip-rule="evenodd" d="M201.106 183.819C202.332 182.641 202.944 181.227 202.944 179.578C202.944 177.928 202.332 176.514 201.106 175.383C199.928 174.205 198.467 173.639 196.724 173.639C195.027 173.639 193.613 174.205 192.434 175.383C191.256 176.514 190.691 177.928 190.691 179.578C190.691 181.227 191.256 182.641 192.434 183.819C193.613 184.951 195.027 185.516 196.724 185.516C198.467 185.516 199.928 184.951 201.106 183.819ZM187.015 170.859C189.277 168.455 192.104 167.277 195.451 167.277C199.033 167.277 201.813 168.738 202.521 170.811V167.701H209.543V183.113C209.543 184.997 210.014 185.752 211.286 185.752C211.616 185.752 212.04 185.705 212.465 185.657V191.502C211.711 191.737 210.674 191.878 209.307 191.878C207.752 191.878 206.432 191.596 205.443 191.03C204.359 190.323 203.651 189.475 203.321 188.485C201.766 190.794 199.174 191.925 195.451 191.925C192.104 191.925 189.277 190.747 187.015 188.391C184.8 185.987 183.669 183.065 183.669 179.578C183.669 176.137 184.8 173.216 187.015 170.859Z" fill="#017146"/>
<path fill-rule="evenodd" clip-rule="evenodd" d="M216.047 191.454V167.701H223.069V170.67C223.965 168.596 226.369 167.183 229.244 167.183C232.448 167.183 234.616 168.455 235.7 170.953C237.02 168.455 239.612 167.183 243.524 167.183C248.849 167.183 251.866 170.859 251.866 177.033V183.018C251.866 184.856 252.243 185.516 253.421 185.516H253.845L254.128 185.469V191.407C253.469 191.643 252.479 191.737 251.112 191.737C246.917 191.737 244.843 189.475 244.843 184.951V177.881C244.843 175.1 243.618 173.404 241.403 173.404C239.141 173.404 237.539 175.336 237.539 178.117V191.454H230.516V177.881C230.516 175.1 229.244 173.404 226.981 173.404C224.719 173.404 223.069 175.336 223.069 178.117V191.454H216.047Z" fill="#017146"/>
<path fill-rule="evenodd" clip-rule="evenodd" d="M275.007 183.819C276.185 182.641 276.751 181.227 276.751 179.578C276.751 177.928 276.185 176.514 275.007 175.383C273.829 174.205 272.415 173.639 270.718 173.639C268.974 173.639 267.514 174.205 266.288 175.383C265.11 176.514 264.497 177.928 264.497 179.578C264.497 181.227 265.11 182.641 266.288 183.819C267.514 184.951 268.974 185.516 270.718 185.516C272.415 185.516 273.829 184.951 275.007 183.819ZM257.899 200.551V167.701H264.921V170.811C265.628 168.738 268.409 167.277 271.991 167.277C275.337 167.277 278.165 168.455 280.38 170.859C282.642 173.216 283.773 176.137 283.773 179.578C283.773 183.018 282.642 185.94 280.38 188.344C278.165 190.7 275.337 191.878 271.991 191.878C268.409 191.878 265.628 190.418 264.921 188.344V200.551H257.899Z" fill="#017146"/>
<path fill-rule="evenodd" clip-rule="evenodd" d="M304.841 176.844C304.841 174.629 302.532 172.885 299.704 172.885C296.64 172.885 294.142 174.629 293.954 176.844H304.841ZM286.837 179.53C286.837 175.808 288.062 172.791 290.466 170.529C292.87 168.219 295.98 167.088 299.704 167.088C303.332 167.088 306.255 168.266 308.517 170.576C310.779 172.885 311.91 175.713 311.91 179.153C311.91 179.955 311.863 180.709 311.816 181.416H293.859C294.001 184.243 296.451 186.082 300.175 186.082C302.39 186.082 304.323 185.327 305.972 183.773L310.072 187.684C307.291 190.559 303.851 192.02 299.845 192.02C295.933 192.02 292.823 190.889 290.419 188.674C288.015 186.411 286.837 183.443 286.837 179.719V179.53Z" fill="#017146"/>
<path fill-rule="evenodd" clip-rule="evenodd" d="M332.836 176.844C332.836 174.629 330.527 172.885 327.699 172.885C324.636 172.885 322.138 174.629 321.949 176.844H332.836ZM314.833 179.53C314.833 175.808 316.059 172.791 318.462 170.529C320.865 168.219 323.976 167.088 327.699 167.088C331.328 167.088 334.25 168.266 336.513 170.576C338.775 172.885 339.906 175.713 339.906 179.153C339.906 179.955 339.859 180.709 339.812 181.416H321.855C321.997 184.243 324.448 186.082 328.171 186.082C330.386 186.082 332.318 185.327 333.968 183.773L338.068 187.684C335.287 190.559 331.847 192.02 327.841 192.02C323.929 192.02 320.818 190.889 318.415 188.674C316.011 186.411 314.833 183.443 314.833 179.719V179.53Z" fill="#017146"/>
<path fill-rule="evenodd" clip-rule="evenodd" d="M343.866 191.454V167.701H350.888V170.953C351.972 168.549 354.517 167.183 357.769 167.183C358.24 167.183 358.853 167.23 359.607 167.324V173.922C358.9 173.781 358.099 173.686 357.25 173.686C353.244 173.686 350.888 175.949 350.888 179.86V191.454H343.866Z" fill="#017146"/>
<path fill-rule="evenodd" clip-rule="evenodd" d="M364.933 174.064H361.822V167.701H364.933V158.605H371.766V167.701H377.045V174.064H371.766V182.547C371.766 184.809 372.662 185.705 374.783 185.705C375.16 185.705 375.772 185.658 376.574 185.517V191.738C375.631 191.973 374.5 192.068 373.134 192.068C367.666 192.068 364.933 189.239 364.933 183.584V174.064Z" fill="#017146"/>
<path fill-rule="evenodd" clip-rule="evenodd" d="M397.547 176.844C397.547 174.629 395.238 172.885 392.41 172.885C389.346 172.885 386.849 174.629 386.66 176.844H397.547ZM379.543 179.53C379.543 175.808 380.769 172.791 383.172 170.529C385.576 168.219 388.687 167.088 392.41 167.088C396.039 167.088 398.961 168.266 401.223 170.576C403.486 172.885 404.617 175.713 404.617 179.153C404.617 179.955 404.57 180.709 404.522 181.416H386.566C386.707 184.243 389.158 186.082 392.881 186.082C395.097 186.082 397.029 185.327 398.678 183.773L402.779 187.684C399.998 190.559 396.557 192.02 392.552 192.02C388.64 192.02 385.529 190.889 383.125 188.674C380.722 186.411 379.543 183.443 379.543 179.719V179.53Z" fill="#017146"/>
<path fill-rule="evenodd" clip-rule="evenodd" d="M408.576 191.454V167.701H415.598V170.953C416.682 168.549 419.228 167.183 422.479 167.183C422.951 167.183 423.563 167.23 424.318 167.324V173.922C423.61 173.781 422.809 173.686 421.961 173.686C417.955 173.686 415.598 175.949 415.598 179.86V191.454H408.576Z" fill="#017146"/>
<path fill-rule="evenodd" clip-rule="evenodd" d="M428.277 191.454V167.701H435.299V170.953C436.383 168.549 438.928 167.183 442.18 167.183C442.651 167.183 443.264 167.23 444.018 167.324V173.922C443.311 173.781 442.51 173.686 441.661 173.686C437.655 173.686 435.299 175.949 435.299 179.86V191.454H428.277Z" fill="#017146"/>
<path fill-rule="evenodd" clip-rule="evenodd" d="M463.86 176.844C463.86 174.629 461.551 172.885 458.723 172.885C455.659 172.885 453.161 174.629 452.973 176.844H463.86ZM445.856 179.53C445.856 175.808 447.082 172.791 449.485 170.529C451.889 168.219 454.999 167.088 458.723 167.088C462.351 167.088 465.273 168.266 467.536 170.576C469.798 172.885 470.929 175.713 470.929 179.153C470.929 179.955 470.882 180.709 470.835 181.416H452.878C453.02 184.243 455.471 186.082 459.194 186.082C461.409 186.082 463.342 185.327 464.991 183.773L469.091 187.684C466.31 190.559 462.87 192.02 458.864 192.02C454.952 192.02 451.842 190.889 449.438 188.674C447.034 186.411 445.856 183.443 445.856 179.719V179.53Z" fill="#017146"/>
<path fill-rule="evenodd" clip-rule="evenodd" d="M474.889 167.701H481.911V183.113C481.911 184.856 482.335 185.61 483.513 185.61C483.938 185.61 484.22 185.563 484.362 185.516V191.502C483.749 191.737 482.665 191.878 481.11 191.878C476.963 191.878 474.889 189.664 474.889 185.186V167.701ZM478.376 157.709C480.592 157.709 482.382 159.454 482.382 161.715C482.382 163.931 480.592 165.674 478.376 165.674C476.161 165.674 474.37 163.931 474.37 161.715C474.37 159.454 476.161 157.709 478.376 157.709Z" fill="#017146"/>
<path fill-rule="evenodd" clip-rule="evenodd" d="M488.038 191.454V167.701H495.061V170.67C496.05 168.596 498.69 167.183 501.894 167.183C507.597 167.183 510.897 170.859 510.897 177.033V183.018C510.897 184.856 511.274 185.516 512.451 185.516H512.923L513.206 185.469V191.407C512.64 191.643 511.604 191.737 510.142 191.737C505.948 191.737 503.874 189.475 503.874 184.951V177.881C503.874 175.1 502.413 173.404 499.633 173.404C496.993 173.404 495.061 175.336 495.061 178.117V191.454H488.038Z" fill="#017146"/>
<path fill-rule="evenodd" clip-rule="evenodd" d="M533.566 176.844C533.566 174.629 531.257 172.885 528.429 172.885C525.365 172.885 522.867 174.629 522.679 176.844H533.566ZM515.562 179.53C515.562 175.808 516.788 172.791 519.191 170.529C521.595 168.219 524.705 167.088 528.429 167.088C532.057 167.088 534.98 168.266 537.242 170.576C539.504 172.885 540.635 175.713 540.635 179.153C540.635 179.955 540.588 180.709 540.541 181.416H522.585C522.726 184.243 525.176 186.082 528.9 186.082C531.116 186.082 533.048 185.327 534.697 183.773L538.797 187.684C536.016 190.559 532.576 192.02 528.57 192.02C524.658 192.02 521.548 190.889 519.144 188.674C516.74 186.411 515.562 183.443 515.562 179.719V179.53Z" fill="#017146"/>
<path fill-rule="evenodd" clip-rule="evenodd" d="M544.595 191.454V167.701H551.617V170.67C552.607 168.596 555.246 167.183 558.451 167.183C564.154 167.183 567.453 170.859 567.453 177.033V183.018C567.453 184.856 567.83 185.516 569.008 185.516H569.48L569.762 185.469V191.407C569.196 191.643 568.16 191.737 566.699 191.737C562.504 191.737 560.431 189.475 560.431 184.951V177.881C560.431 175.1 558.97 173.404 556.189 173.404C553.55 173.404 551.617 175.336 551.617 178.117V191.454H544.595Z" fill="#017146"/>
</g>
<defs>
<clipPath id="clip0_606_7">
<rect width="570" height="200.676" fill="white"/>
</clipPath>
</defs>
</svg>
