<svg version="1.1" id="Calque_1" xmlns="http://www.w3.org/2000/svg" x="0" y="0" viewBox="0 0 720.3 160.6" style="enable-background:new 0 0 720.3 160.6" xml:space="preserve"><style>.st5{fill:#fff}</style><linearGradient id="SVGID_1_" gradientUnits="userSpaceOnUse" x1="33.567" y1="111.57" x2="126.157" y2="37.919" gradientTransform="matrix(1 0 0 -1 0 170)"><stop offset="0" style="stop-color:#165dd7"/><stop offset="1" style="stop-color:#27d9a1"/></linearGradient><path d="M71.7 58.9C72 37.8 55.2 20.4 34 20.1h-.3c3.2 5.7 4.9 12.2 4.8 19.2C38.2 60.3 21 77.1 0 76.9c6.4 11.5 18.7 19.4 32.8 19.7 21.2.3 38.6-16.5 38.9-37.7z" style="fill:url(#SVGID_1_)"/><linearGradient id="SVGID_00000139279926902548155310000011676438747646106286_" gradientUnits="userSpaceOnUse" x1="27.964" y1="103.755" x2="120.554" y2="30.104" gradientTransform="matrix(1 0 0 -1 0 170)"><stop offset="0" style="stop-color:#165dd7"/><stop offset="1" style="stop-color:#27d9a1"/></linearGradient><circle style="fill:url(#SVGID_00000139279926902548155310000011676438747646106286_)" cx="122.6" cy="141.5" r="19.1"/><linearGradient id="SVGID_00000158026614071292452380000004916984359902443174_" gradientUnits="userSpaceOnUse" x1="33.914" y1="111.235" x2="126.504" y2="37.583" gradientTransform="matrix(1 0 0 -1 0 170)"><stop offset="0" style="stop-color:#165dd7"/><stop offset="1" style="stop-color:#27d9a1"/></linearGradient><path style="fill:url(#SVGID_00000158026614071292452380000004916984359902443174_)" d="m168.1 91-28.3-32.3c-1.8-2.1-4.4-3.3-7.2-3.3H84.3c0 6.2-1.2 12-3.3 17.5-11.5 35.5-49.4 68.7-49.4 68.7h63.3c0-15.2 12.4-27.6 27.6-27.6 15.2 0 27.6 12.4 27.6 27.6h10.6c5.3 0 9.6-4.3 9.6-9.6V97.2c.1-2.3-.7-4.5-2.2-6.2zm-16.9 2.6h-44.6c-1.8 0-3.2-1.5-3.2-3.2V68.2c0-1.8 1.5-3.2 3.2-3.2h22.7c2.9 0 5.6 1.3 7.4 3.4l16.9 19.9c1.9 2.1.4 5.3-2.4 5.3z"/><linearGradient id="SVGID_00000044161762013019362290000013619068727995842454_" gradientUnits="userSpaceOnUse" x1="3.21" y1="96.29" x2="3.21" y2="96.29" gradientTransform="matrix(1 0 0 -1 0 170)"><stop offset="0" style="stop-color:#165dd7"/><stop offset="1" style="stop-color:#27d9a1"/></linearGradient><linearGradient id="SVGID_00000109735349131665426030000009405924863331797695_" gradientUnits="userSpaceOnUse" x1="78.807" y1="167.672" x2="171.397" y2="94.02" gradientTransform="matrix(1 0 0 -1 0 170)"><stop offset="0" style="stop-color:#165dd7"/><stop offset="1" style="stop-color:#27d9a1"/></linearGradient><path style="fill:url(#SVGID_00000109735349131665426030000009405924863331797695_)" d="m161.8 40.7-22-29.4c-1.8-2.4-4.6-3.8-7.7-3.8H42.3l-.2.4c20.6 2.4 37.1 17.9 41.2 37.9h75.9c2.7 0 4.2-3 2.6-5.1z"/><g><path class="st5" d="M223.6 124.8V58.1h14.3v5c2-3.1 7.3-6.1 14.2-6.1 14 0 22.4 10.7 22.4 25.1 0 14.7-9.5 25.3-23 25.3-6.2 0-10.9-2.1-13.1-4.9v22.2h-14.8zM249 70.2c-5.7 0-10.9 3.9-10.9 11.9s5.1 12 10.9 12c5.8 0 11-4 11-12s-5.2-11.9-11-11.9zM295.3 78.5l11.4-1.8c2.6-.4 3.5-1.6 3.5-3.3 0-2.8-2.4-5.2-7.1-5.2-5.1 0-8 3.5-8.2 7.1L282 72.7c.6-6.9 7-16 21.2-16 15.6 0 21.3 8.7 21.3 18.6v23.6c0 3.8.5 7 .6 7.5h-13.3c-.1-.4-.5-2.1-.5-5.4-2.5 4.1-7.2 6.8-13.6 6.8-10.6 0-16.7-7-16.7-14.6 0-8.7 6.3-13.5 14.3-14.7zm14.8 8.9v-2.1l-9.1 1.5c-3.1.5-5.4 1.9-5.4 5.3 0 2.5 1.7 5 5.7 5 4.3-.1 8.8-2.2 8.8-9.7zM367.5 72.7c-1.7-.4-3.2-.5-4.7-.5-5.9 0-11.2 3.5-11.2 13.1v21h-14.7V58.1h14.3v6.5c2.5-5.4 8.6-7 12.5-7 1.5 0 2.9.2 3.9.5l-.1 14.6zM406.1 78.4l19.2 27.9h-18l-11.3-17-4.8 5.1v11.8h-14.7V36.1h14.7v38.2l14.7-16.2H425l-18.9 20.3zM428.8 77.7 455 43.4h18.2v37h10.1v12.8h-10.1v13.1h-15.3V93.2h-29.1V77.7zm29.1-18-15.8 20.8h15.8V59.7zM506 106.3h-14.7V58.1h14.3v5.5c2.6-4.6 8.5-6.8 13.5-6.8 12.1 0 17.6 8.6 17.6 19.2v30.3H522V78.6c0-4.8-2.5-8.3-7.9-8.3-4.8 0-8 3.6-8 8.4l-.1 27.6zM556.3 34.8c4.8 0 8.7 3.9 8.7 8.6s-3.9 8.6-8.7 8.6c-4.7 0-8.5-3.9-8.5-8.6s3.8-8.6 8.5-8.6zm-7.3 71.5V58.1h14.7v48.2H549zM586.3 105.4c1 4.7 4.8 8 10.4 8 7.4 0 11.9-3.6 11.9-12.3v-2.2c-1.8 2.6-5.9 5.4-12.9 5.4-12.8 0-22.4-10.1-22.4-23.5 0-12.7 9.2-23.6 22.4-23.6 7.9 0 12 3.5 13.4 6v-5.1h14.1v42.2c0 13.9-7.8 25.9-25.8 25.9-13.9 0-22.7-8.5-24.1-17.2l13-3.6zm22.4-24.6c0-6.6-4.8-10.7-10.3-10.7S588 74.2 588 80.8s4.5 10.7 10.4 10.7c6 0 10.3-4.1 10.3-10.7zM650.3 106.3h-14.7V36.1h14.7v25.1c3-3 8-4.4 12.3-4.4 12.6 0 18.2 8.6 18.2 19.2v30.3h-14.7V78.6c0-4.8-2.5-8.3-7.9-8.3-4.7 0-7.7 3.3-8 7.8l.1 28.2zM710.9 58.1h9.4V71h-9.4v18c0 4 2.1 5 5.3 5 1.5 0 3-.3 3.9-.5v12.2c-.6.3-3 1.4-7.7 1.4-10 0-16.1-5.9-16.1-15.5V71h-8.5V58.1h2.4c5 0 7.5-3.4 7.5-7.9V44h13.2v14.1z"/></g></svg>