<?xml version="1.0" encoding="utf-8"?>
<!-- Generator: Adobe Illustrator 15.1.0, SVG Export Plug-In . SVG Version: 6.00 Build 0)  -->
<!DOCTYPE svg PUBLIC "-//W3C//DTD SVG 1.1//EN" "http://www.w3.org/Graphics/SVG/1.1/DTD/svg11.dtd">
<svg version="1.1" id="Layer_1" xmlns="http://www.w3.org/2000/svg" xmlns:xlink="http://www.w3.org/1999/xlink" x="0px" y="0px"
	 width="180.685px" height="30.266px" viewBox="0 0 180.685 30.266" enable-background="new 0 0 180.685 30.266"
	 xml:space="preserve">
<path fill-rule="evenodd" clip-rule="evenodd" fill="#0066B3" d="M5.145,2.777h15.574c2.83,0,5.145,2.315,5.145,5.145v20.719H5.145
	C2.315,28.641,0,26.325,0,23.496V7.922C0,5.092,2.315,2.777,5.145,2.777"/>
<path fill-rule="evenodd" clip-rule="evenodd" d="M66.792,12.595V9.587c-3.53,0-6.392,2.862-6.392,6.392v9.775h3.008v-9.775
	C63.408,14.11,64.923,12.595,66.792,12.595"/>
<path fill-rule="evenodd" clip-rule="evenodd" d="M113.411,9.587c-0.125,0-0.25,0.004-0.375,0.012V9.587h-3.008l0,0
	c-1.654,0-3.007,1.354-3.007,3.008v0v3.007h0.01c-0.007,0.124-0.01,0.25-0.01,0.376v9.775h3.007v-0.175v-4.178v-5.422
	c0-0.127,0.008-0.253,0.021-0.376h-0.021v-3.007h3.008v0.021c0.123-0.014,0.249-0.021,0.375-0.021c1.869,0,3.385,1.515,3.385,3.383
	v5.422v4.178v0.175h3.008v-9.775C119.803,12.449,116.942,9.587,113.411,9.587"/>
<polygon fill-rule="evenodd" clip-rule="evenodd" points="79.662,9.587 82.431,18.302 84.785,25.706 84.77,25.754 84.8,25.754 
	87.883,25.754 87.914,25.754 87.899,25.706 90.251,18.302 93.021,9.587 89.907,9.587 87.347,17.645 86.341,20.808 85.337,17.645 
	82.776,9.587 "/>
<path fill-rule="evenodd" clip-rule="evenodd" d="M76.942,19.363c0,1.868-1.515,3.383-3.384,3.383c-1.869,0-3.383-1.515-3.383-3.383
	v-3.384c0-1.869,1.515-3.383,3.383-3.383c1.869,0,3.384,1.515,3.384,3.383V19.363z M73.559,9.587c3.531,0,6.392,2.862,6.392,6.392
	v0.027v3.329v0.028c0,0.125-0.003,0.25-0.011,0.375h0.011v3.008v3.008h-3.008v-0.969c-0.981,0.614-2.141,0.969-3.384,0.969
	c-3.53,0-6.391-2.862-6.391-6.391v-0.028v-3.329v-0.027C67.167,12.449,70.029,9.587,73.559,9.587z"/>
<path fill-rule="evenodd" clip-rule="evenodd" d="M55.889,19.363c0,1.868-1.515,3.383-3.384,3.383c-1.869,0-3.383-1.515-3.383-3.383
	v-3.384c0-1.869,1.515-3.383,3.383-3.383c1.869,0,3.384,1.515,3.384,3.383V19.363z M52.504,9.587c3.53,0,6.392,2.862,6.392,6.392
	v0.027v3.329v0.028c0,0.125-0.003,0.25-0.011,0.375h0.011v3.008v3.008h-3.007v-0.969c-0.981,0.614-2.142,0.969-3.384,0.969
	c-3.529,0-6.391-2.862-6.391-6.391v-0.028v-3.329v-0.027C46.113,12.449,48.975,9.587,52.504,9.587z"/>
<path fill-rule="evenodd" clip-rule="evenodd" d="M99.125,12.595c1.869,0,3.384,1.515,3.384,3.383v3.384
	c0,1.868-1.515,3.383-3.384,3.383c-1.868,0-3.384-1.515-3.384-3.383v-3.384C95.741,14.11,97.256,12.595,99.125,12.595 M99.125,9.587
	c3.53,0,6.392,2.862,6.392,6.392v0.027v3.329v0.028c0,0.125-0.003,0.25-0.011,0.375h0.011v3.008v3.008h-3.007v-0.969
	c-0.982,0.614-2.141,0.969-3.384,0.969c-3.53,0-6.392-2.862-6.392-6.391v-0.028v-3.329v-0.027
	C92.733,12.449,95.595,9.587,99.125,9.587z"/>
<path fill-rule="evenodd" clip-rule="evenodd" d="M132.209,9.587c3.53,0,6.392,2.862,6.392,6.392v9.775h-3.008v-0.175v-4.178v-5.422
	c0-1.869-1.515-3.383-3.384-3.383c-0.127,0-0.252,0.007-0.376,0.021v-0.021h-3.007v3.007h0.021
	c-0.014,0.123-0.021,0.249-0.021,0.376v5.422v4.178v0.175h-3.008v-9.775c0-0.126,0.004-0.252,0.011-0.376h-0.011v-3.007v0
	c0-1.654,1.353-3.008,3.007-3.008h0.001h3.007v0.012C131.958,9.591,132.083,9.587,132.209,9.587"/>
<path fill-rule="evenodd" clip-rule="evenodd" d="M149.88,19.363c0,1.868-1.516,3.383-3.384,3.383c-1.869,0-3.384-1.515-3.384-3.383
	v-3.384c0-1.869,1.515-3.383,3.384-3.383c1.868,0,3.384,1.515,3.384,3.383V19.363z M146.497,30.266c3.403,0,6.186-2.661,6.38-6.016
	h0.012v-0.376v-1.128v-1.504v-1.504h-0.011c0.007-0.125,0.011-0.25,0.011-0.375v-0.028v-3.329v-0.027
	c0-3.53-2.861-6.392-6.392-6.392s-6.392,2.862-6.392,6.392v0.027v3.329v0.028c0,3.529,2.861,6.391,6.392,6.391
	c1.18,0,2.284-0.32,3.233-0.878c-0.428,1.38-1.714,2.382-3.233,2.382h-3.007v2.255c0,0.414,0.338,0.753,0.751,0.753H146.497z"/>
<path fill-rule="evenodd" clip-rule="evenodd" d="M32.579,11.467c0-3.404,2.66-6.186,6.015-6.38V5.076h0.376h2.632h2.256
	c0.414,0,0.752,0.338,0.752,0.752v2.256h-3.008H38.97c-1.869,0-3.384,1.515-3.384,3.383v7.896c0,1.868,1.515,3.383,3.384,3.383
	h2.632h3.008v2.256c0,0.413-0.338,0.752-0.752,0.752h-2.256H38.97h-0.376v-0.011c-3.355-0.195-6.015-2.978-6.015-6.38V11.467z"/>
<path fill-rule="evenodd" clip-rule="evenodd" d="M124.315,14.099v11.655h-3.008V14.099H124.315z M121.307,9.587h2.255
	c0.415,0,0.753,0.338,0.753,0.752v2.256h-3.008V9.587z"/>
<path fill-rule="evenodd" clip-rule="evenodd" fill="#0066B3" d="M58.144,4.873v0.014c0,0.935-0.757,1.692-1.691,1.692
	c-0.935,0-1.692-0.757-1.692-1.692V4.873V3.21V3.196c0-0.935,0.758-1.692,1.692-1.692c0.934,0,1.691,0.757,1.691,1.692V3.21V4.873z
	 M56.453,0c1.765,0,3.195,1.431,3.195,3.196v0.014v1.664v0.014c0,1.765-1.431,3.196-3.195,3.196c-1.765,0-3.196-1.431-3.196-3.196
	V4.874V3.209V3.196C53.257,1.431,54.688,0,56.453,0z"/>
<path fill-rule="evenodd" clip-rule="evenodd" fill="#0066B3" d="M80.326,0h1.127c0.208,0,0.377,0.169,0.377,0.376v7.708h-1.504V0z"
	/>
<path fill-rule="evenodd" clip-rule="evenodd" fill="#0066B3" d="M69.423,0h-1.598c-1.298,0-2.35,1.052-2.35,2.35
	s1.052,2.35,2.35,2.35h1.598c0.519,0,0.94,0.42,0.94,0.94c0,0.519-0.421,0.939-0.94,0.939h-0.564h-1.503h-1.504v1.128
	c0,0.207,0.169,0.376,0.376,0.376h1.128h1.503h0.564c1.35,0,2.444-1.094,2.444-2.444c0-1.318-1.044-2.393-2.35-2.442V3.196h-0.094
	h-1.598c-0.467,0-0.846-0.379-0.846-0.846s0.379-0.846,0.846-0.846h1.598h1.691V0.376C71.115,0.169,70.946,0,70.739,0H69.423z"/>
<path fill-rule="evenodd" clip-rule="evenodd" fill="#0066B3" d="M60.4,3.196V0h1.504v3.196v1.691c0,0.935,0.757,1.692,1.692,1.692
	H65.1v1.128c0,0.207-0.169,0.376-0.376,0.376h-1.128c-1.765,0-3.196-1.431-3.196-3.196V3.196z"/>
<path fill-rule="evenodd" clip-rule="evenodd" fill="#0066B3" d="M49.309,0c-0.063,0-0.126,0.002-0.188,0.005V0h-1.504h-1.127
	c-0.207,0-0.376,0.169-0.376,0.376v1.128h0.484h2.711C50.243,1.504,51,2.261,51,3.196c0,0.934-0.757,1.691-1.691,1.691h-2.711
	h-0.484v3.196h1.503V6.391h1.504V6.386c0.062,0.003,0.125,0.005,0.188,0.005c1.765,0,3.195-1.431,3.195-3.195
	C52.504,1.431,51.074,0,49.309,0"/>
<polygon fill-rule="evenodd" clip-rule="evenodd" fill="#0066B3" points="74.311,0 72.807,0 72.807,8.083 74.311,8.083 
	74.311,4.793 74.622,5.105 77.6,8.083 79.727,8.083 75.686,4.042 79.727,0 77.6,0 74.622,2.978 74.311,3.29 "/>
<path fill-rule="evenodd" clip-rule="evenodd" fill="#FFFFFF" d="M6.218,19.611v-8.428c0-1.396,1.132-2.529,2.528-2.529h2.248h2.248
	h2.247h2.248l0,0c0-1.236-1.011-2.247-2.248-2.247l0,0h-2.247h-2.248H8.746c-2.638,0-4.776,2.138-4.776,4.776v8.428
	c0,2.637,2.138,4.776,4.776,4.776H9.87v-0.046l0-0.012v-0.007v-0.004l0.002-0.046v-0.012l0-0.004l0-0.007l0.003-0.057v-0.001
	l0.005-0.056l0-0.009l0-0.003L9.89,24.07v-0.005l0.009-0.061l0-0.002v-0.001l0.002-0.01l0.007-0.045l0.001-0.007l0-0.003
	l0.002-0.012l0.008-0.043l0.001-0.005l0.001-0.007l0.012-0.054l0-0.001l0.01-0.041l0.002-0.012l0.002-0.008l0.001-0.002l0-0.003
	L9.964,23.7l0.001-0.005l0.001-0.006l0.003-0.01h0c0.306-1.053,1.277-1.82,2.427-1.82c1.397,0,2.529,1.131,2.529,2.527h5.338h2.248
	v-1.124V22.14v-2.248v-2.247v-1.124v-1.124v-0.843v-0.281h-0.008c-0.146-2.507-2.225-4.495-4.768-4.495h-2.248h-2.247l0,0
	c0,1.236,1.011,2.248,2.247,2.248l0,0h2.248c1.396,0,2.529,1.132,2.529,2.528v0.843v1.124v1.124v2.247v2.248h-3.621
	c-0.794-1.536-2.397-2.586-4.246-2.586c-1.79,0-3.395,0.996-4.211,2.525C7.059,21.823,6.218,20.815,6.218,19.611"/>
<path fill-rule="evenodd" clip-rule="evenodd" fill="#0066B3" d="M157.052,22.816h-2.234v2.979h2.978v-2.234
	C157.795,23.151,157.461,22.816,157.052,22.816"/>
<path fill-rule="evenodd" clip-rule="evenodd" fill="#0066B3" d="M171.379,16.116V5.321h2.232c0.409,0,0.745,0.335,0.745,0.745
	v10.05v3.35c0,1.85,1.5,3.349,3.35,3.349h2.979v2.234c0,0.409-0.335,0.745-0.744,0.745h-2.234c-3.495,0-6.327-2.834-6.327-6.329
	V16.116z"/>
<path fill-rule="evenodd" clip-rule="evenodd" fill="#0066B3" d="M167.473,16.116v3.35c0,1.85-1.499,3.349-3.35,3.349v0.001h-1.861
	h-1.489h-1.488v7.444h2.234c0.409,0,0.743-0.335,0.743-0.744v-3.722h1.861l0,0c3.495-0.001,6.329-2.834,6.329-6.329v-3.35
	c0-3.495-2.834-6.328-6.329-6.328v0h-1.861h-2.233c-0.409,0-0.744,0.335-0.744,0.744v2.233h2.978h1.861l0,0
	C165.974,12.766,167.473,14.266,167.473,16.116"/>
</svg>
