<svg version="1.1" id="Layer_1" xmlns="http://www.w3.org/2000/svg" xmlns:xlink="http://www.w3.org/1999/xlink" x="0px" y="0px"
	 width="149.809px" height="67.702px" viewBox="0 0 149.809 67.702" enable-background="new 0 0 149.809 67.702"
	 xml:space="preserve">
<path fill-rule="evenodd" clip-rule="evenodd" fill="#7C7B7B" d="M110.59,32.552l-8.459-12.042h-7.506v28.644h5.806V27.812
	l10.159,13.812l10.158-13.812v21.342h5.807V20.509h-7.508L110.59,32.552L110.59,32.552z M71.672,49.153h-5.807V20.509h14.027
	c5.878,0,10.684,2.033,10.684,8.645c0,3.982-2.814,7.276-5.939,8.252l7.674,11.747h-3.725c-1.988,0-3.74-1.018-4.73-2.675
	l-7.489-12.521c-0.191-0.386-0.001-0.763,0.431-0.78l2.561-0.105c2.629-0.109,5.312-0.427,5.312-3.838
	c0-3.241-2.636-3.585-5.379-3.585h-7.619V49.153L71.672,49.153z M129.814,34.038l10.925-13.529h7.175l-11.378,14.023l13.272,14.621
	h-5.101c-1.886,0-3.278-0.932-3.871-1.597L129.81,35.173C129.482,34.805,129.506,34.419,129.814,34.038L129.814,34.038z"/>
<path fill-rule="evenodd" clip-rule="evenodd" fill="#007A4E" d="M35.111,67.702V56.247c0-6.037-4.4-10.688-10.684-10.688H12.085
	l14.118-25.467l-8.599-0.002L29.277,0.159H21.08L5.31,27.095h8.81L0,52.749h24.162c2.123,0,3.767,1.738,3.767,3.764v11.189H35.111
	L35.111,67.702z"/>
<path fill-rule="evenodd" clip-rule="evenodd" fill="#83BB26" d="M53.803,67.702V53.558c0-4.879-1.885-8.439-4.983-12.17
	c-4.321-5.203-7.397-12.067-7.341-18.714c0.073-8.724,4.114-17.042,10.232-22.515h-9.502c-5.346,6.529-8.122,14.225-8.146,22.693
	c-0.022,7.721,2.785,15.342,7.518,21.379c2.576,3.286,4.966,5.179,4.966,9.57v13.9H53.803L53.803,67.702z"/>
</svg>
