<svg xmlns="http://www.w3.org/2000/svg" viewBox="0 0 782.17 96.71" version="1.1" id="svg84"><defs id="defs52"><style id="style50">.cls-1{fill:#fff}.cls-2{fill:#f9b104}</style></defs><g id="Ebene_2" data-name="Ebene 2"><g id="Ebene_2-2" data-name="Ebene 2"><path class="cls-1" d="M138.35 22.27a80 80 0 00-12.35-.93 41.25 41.25 0 00-11.54 1.44 21.21 21.21 0 00-8.52 4.71 25.57 25.57 0 00-5.94 8.38 58.25 58.25 0 00-3.8 12.29c-1.92 9.45-1.13 16.36 2.35 20.54S108 75 116.3 75a82.17 82.17 0 0012.26-.88 96.73 96.73 0 0011.76-2.56l.29-.08L150 25l-.42-.14a75.14 75.14 0 00-11.23-2.59zm-26.2 35.36a60.52 60.52 0 011.31-9.27 72.8 72.8 0 012.48-9.42 19.28 19.28 0 013-5.68 8.8 8.8 0 013.75-2.78 15.18 15.18 0 015.21-.8c.7 0 1.49 0 2.36.09a12.26 12.26 0 011.85.27l-7.28 36.22a15.93 15.93 0 01-2 .35 21.55 21.55 0 01-2.29.14 12.81 12.81 0 01-4.89-.79 5 5 0 01-2.68-2.73 12.64 12.64 0 01-.82-5.6z" id="path54"/><path class="cls-1" d="M41.38 21.44a18.92 18.92 0 00-2-.1h-1.87a92.1 92.1 0 00-14.46 1.13 73.18 73.18 0 00-12.91 3.2l-.27.1L0 73.62h16.88L25.49 32a56.6 56.6 0 016.19.43 38.88 38.88 0 016.18 1.21l.48.14L42 21.5z" id="path56"/><path class="cls-1" d="M69.71 21.34a41.82 41.82 0 00-11.59 1.44 22.34 22.34 0 00-8.65 4.65 25 25 0 00-6 8.34 53.45 53.45 0 00-3.76 12.3c-1.78 9.31-1 16.19 2.35 20.47S51.39 75 59.93 75a42.68 42.68 0 0011.63-1.43 22.59 22.59 0 008.71-4.66 25.18 25.18 0 006-8.29 52 52 0 003.75-12.35c1.85-9.3 1.08-16.19-2.3-20.47s-9.4-6.46-18.01-6.46zM55.53 57.88a70.4 70.4 0 011.36-9.62 78.91 78.91 0 012.48-9.67 26.11 26.11 0 012.78-6 8.48 8.48 0 013.09-3 8 8 0 013.59-.83 6 6 0 013.21.8 4.9 4.9 0 011.89 2.9 17.54 17.54 0 01.42 5.94 74.73 74.73 0 01-1.41 9.63 77.13 77.13 0 01-2.48 9.67 25.31 25.31 0 01-2.78 6 8.59 8.59 0 01-3.08 3 8 8 0 01-3.6.82 5.75 5.75 0 01-3.15-.8A5 5 0 0156 63.83a18.19 18.19 0 01-.47-5.95z" id="path58"/><path class="cls-1" d="M434 30.09a10.43 10.43 0 00-3.7-5.13 16.75 16.75 0 00-6.5-2.78 42.39 42.39 0 00-8.92-.84 37.12 37.12 0 00-11 1.49 21.75 21.75 0 00-8.36 4.76 25.81 25.81 0 00-5.89 8.33A50.58 50.58 0 00386 48.07a40.69 40.69 0 00-.74 12.39 16.12 16.12 0 003.34 8.38 15.21 15.21 0 007.4 4.71A37.91 37.91 0 00407.18 75a46.44 46.44 0 0010.69-1.18 39.34 39.34 0 008.82-3.18l.37-.19-2.53-8.37-.52.22a42.51 42.51 0 01-5.95 2.13 24.38 24.38 0 01-6.37.77 13.68 13.68 0 01-4.68-.71 6.46 6.46 0 01-3-2.18 9.15 9.15 0 01-1.57-4 21.9 21.9 0 010-6c1.84 0 3.88 0 6.08-.1 2.38-.07 5.08-.26 8-.59a43.77 43.77 0 006.53-1.19 16.93 16.93 0 005.31-2.43 13.26 13.26 0 003.82-4.12 17.56 17.56 0 002.12-6.24 15.3 15.3 0 00-.3-7.55zm-30.2 14.34a60.87 60.87 0 012.09-7.3 22.42 22.42 0 012.44-5 8.15 8.15 0 012.67-2.56 6.3 6.3 0 013-.77 4.38 4.38 0 013.63 1.48c.82 1 1 2.9.58 5.67s-1.29 4.8-2.53 5.92a10.72 10.72 0 01-5.94 2.18c-1.15.13-2.3.22-3.4.29-.85.05-1.71.08-2.54.09z" id="path60"/><path class="cls-1" d="M387.94 22.81H376.2l1.33-5.76c.62-2.83 1.45-4.79 2.46-5.83a5.75 5.75 0 014.29-1.51 13.26 13.26 0 013.21.38 14.86 14.86 0 012.55.85l.47.21 3.21-7.73-.38-.22A26.68 26.68 0 00388 1a27.1 27.1 0 00-7.83-1c-5.57 0-9.94 1.2-13 3.58S362 9.9 360.89 15.27l-1.59 7.59-6.46.88-1.67 7.7h6.37L349 73a47.75 47.75 0 01-2.8 9.3 28.15 28.15 0 01-5.58 8.08l-.28.29 4.05 6 .35-.1c6-1.72 10.74-4.47 14.08-8.18s5.7-8.82 7-15.2l8.63-41.79h11.54z" id="path62"/><path class="cls-1" d="M345.66 33.81l3.65-12.31-.61-.06a18.6 18.6 0 00-1.95-.1h-1.91a92.13 92.13 0 00-14.47 1.13 73.4 73.4 0 00-12.91 3.2l-.27.1-9.87 47.85h16.88L332.81 32a56.6 56.6 0 016.19.43 38.8 38.8 0 016.19 1.21z" id="path64"/><path class="cls-1" d="M194.88 1.17l-4.39 21.25c-1.41-.28-2.87-.53-4.34-.74a34.5 34.5 0 00-4.76-.34 35.63 35.63 0 00-10.58 1.44 20.75 20.75 0 00-8.12 4.71 26.85 26.85 0 00-5.79 8.38 58.25 58.25 0 00-3.8 12.29c-1.91 9.45-1.12 16.36 2.36 20.54s9.43 6.3 17.71 6.3a82.27 82.27 0 0012.26-.88 96.17 96.17 0 0011.75-2.56l.3-.08 14.37-70.3zm-15.26 65.44a14.15 14.15 0 01-7.14-.65 5.08 5.08 0 01-2.68-2.73 12.65 12.65 0 01-.78-5.6 58.11 58.11 0 011.31-9.27 70.37 70.37 0 012.48-9.42 19.05 19.05 0 012.95-5.68 8.78 8.78 0 013.74-2.78 15.22 15.22 0 015.21-.8q1.06 0 2.37.09a12.65 12.65 0 011.85.27l-7.38 36.22a16.12 16.12 0 01-1.93.35z" id="path66"/><path class="cls-1" d="M290.8 22.81l-9.12 44.08c-1 .11-1.91.2-2.79.25s-2 .1-3 .1c-2.87 0-4.79-.68-5.7-2s-1.05-3.79-.36-7.16L277 22.81h-17l-6.68 32.89c-1.33 6.4-.5 11.27 2.48 14.49s8.51 4.8 16.51 4.8a83.69 83.69 0 0012.61-1 118 118 0 0012.58-2.65l.3-.09 10-48.46z" id="path68"/><path class="cls-1" d="M242.46 22.58a32.19 32.19 0 00-9.2-1.24c-6 0-10.76 1.23-14.09 3.67a16.72 16.72 0 00-6.46 10.63 15.74 15.74 0 00.16 7.94 13.15 13.15 0 003.21 5.19 18.45 18.45 0 004.78 3.37c1.7.84 3.32 1.69 4.81 2.53a13.79 13.79 0 013.5 2.69 3.9 3.9 0 01.83 3.44 4.82 4.82 0 01-1.88 3.2c-1.05.78-2.88 1.18-5.43 1.18a20.94 20.94 0 01-6.55-1.06 32.19 32.19 0 01-5.92-2.6l-.47-.27L205.6 70l.38.24a31.67 31.67 0 008.41 3.39A41.38 41.38 0 00225 75c5.62 0 10.23-1.18 13.69-3.51s5.77-6.07 6.77-11.08a14.94 14.94 0 00-.17-7.7 12.7 12.7 0 00-3.21-5.09 19.66 19.66 0 00-4.82-3.37 97.74 97.74 0 01-4.87-2.58 14.87 14.87 0 01-3.51-2.67 3.67 3.67 0 01-.9-3.35 4.78 4.78 0 011.86-3.25 8.15 8.15 0 014.79-1.13 20.71 20.71 0 016.12.86 29.69 29.69 0 014.81 1.87l.47.25 3.82-8.53-.38-.22a32.63 32.63 0 00-7.01-2.92z" id="path70"/><path class="cls-1" d="M579.18 58.06c-6.48.13-13 6.1-18.88 8.42-8.29 3.28-18 2.54-19.53-7.6-.25-1.66-.27-5.3.56-7 2.58-5.32 5.68-2.74 10.06-3.82 3.41-.85 7-1.61 7.65-5.92 1.11-7.16-9.94-9.35-15-9.27-8 .14-15 4.41-21.07 9.22-3.94 3.12-7.47 6.7-11.2 10.06s-12 12.45-18 5.86c-2.65-2.94-2-8.42-1.31-11.84a30.76 30.76 0 019.06-15.5c7.08-6.54 14.15-6 22.56-8.33 4.21-1.16 7-4 4.59-8.7-3.5-6.86-16.36-10.64-23.16-11.96a55 55 0 00-27.76 1.71c-23.74 7.81-35 30.88-40.24 53.74-1.23 5.38-5.79 15.11 1.47 17.11 5.73 1.58 11.17.21 13-5.21a.8.8 0 00.09-.26.75.75 0 000-.2c2.06-14.47 5.81-29.45 15.06-41.11 8.6-10.75 22.99-16.46 35.94-13.76a39.3 39.3 0 00-12.93 9.83C481 34 473.42 52.72 481.58 65.77c5.89 9.44 17.3 9.16 26.39 4.79 6.39-3.08 12.78-11.1 19.6-17.17a29.55 29.55 0 00-.27 3.31c-.38 19.43 16.62 25 32.61 19.83 6.27-2 18-6.08 22.26-11.76 2.89-3.88 1.83-6.77-2.99-6.71z" id="path72"/><path class="cls-2" d="M593.67 73.38l9.9-48a74.3 74.3 0 0112.9-3.15A91.36 91.36 0 01631 21.08h2c.6 0 1.36 0 2.3.1l-3.5 11.5a33 33 0 00-6.35-1.35 55.61 55.61 0 00-6.75-.45l-8.8 42.5z" id="path74"/><path class="cls-2" d="M654.67 74.78q-13.2 0-18.5-6.1t-2.6-20.8q2.7-14.31 9.6-20.6t19.4-6.3q10.09 0 15.45 3.65t3.85 12.45q-1.3 7.39-5.9 10.25a27.3 27.3 0 01-11.8 3.55q-4.2.4-7.95.55c-2.5.1-4.79.15-6.85.15q-.9 7.89 1.65 11.05t8.25 3.15a23.94 23.94 0 006.65-.85 55.91 55.91 0 006.08-2.15l2.4 7.6a40 40 0 01-9 3.2 46.41 46.41 0 01-10.73 1.2zm7-47.2c-2.4 0-4.49 1.21-6.25 3.65s-3.39 6.88-4.85 13.35c1.06 0 2.2 0 3.4-.15s2.33-.18 3.4-.25q4.29-.51 6.35-2.35c1.36-1.24 2.28-3.35 2.75-6.35s.23-5.07-.7-6.2a5 5 0 00-4.1-1.7z" id="path76"/><path class="cls-2" d="M714.57 28.48c-1 0-2 0-3.1.1s-2.14.17-3.21.3l-9.19 44.5h-16.31l10-48.6A127.07 127.07 0 01705.62 22a81 81 0 0112.85-1q12 0 16.35 4.85t2.44 14.25l-6.79 33.3h-16.3l7.09-34.9q1.11-5.29-.5-7.65c-1.06-1.59-3.13-2.37-6.19-2.37z" id="path78"/><path class="cls-2" d="M760 74.78q-8.7 0-12.1-4.3t-1.4-13.9l5.3-26.3h-6.3l1.4-6.9 7.6-1.5L766.27 9h6.3l-2.9 13.5h12.5l-1.6 7.8h-12.5l-5.3 26c-.74 3.8-.8 6.4-.2 7.8s1.86 2.1 3.8 2.1a12.59 12.59 0 003-.35 11.89 11.89 0 002.7-1l2.3 6.3a18.71 18.71 0 01-6 2.65 31.67 31.67 0 01-8.37.98z" id="path80"/></g></g></svg>