<svg width="151" height="27" viewBox="0 0 151 27" fill="none" xmlns="http://www.w3.org/2000/svg">
<path d="M36.0891 6.21708C35.0374 6.04169 33.9728 5.95485 32.9065 5.95748C31.9005 5.93896 30.8976 6.07453 29.9326 6.35948C29.1165 6.60748 28.3648 7.05758 27.737 7.67448C27.0859 8.33408 26.5652 9.13 26.2062 10.014C25.7623 11.1209 25.4341 12.2707 25.227 13.4452C24.7322 16.0835 24.9358 18.0127 25.8326 19.1797C26.7294 20.3467 28.2678 20.9385 30.4068 20.9385C31.4649 20.9421 32.5214 20.86 33.5662 20.6929C34.5912 20.5225 35.6036 20.2837 36.5967 19.9781L36.6715 19.9558L39.0913 6.97928L38.983 6.94018C38.0399 6.61999 37.072 6.37813 36.0891 6.21708ZM29.3373 16.0891C29.3878 15.2194 29.5006 14.3545 29.6749 13.501C29.833 12.6119 30.0465 11.7336 30.314 10.8711C30.488 10.2994 30.7493 9.7634 31.0871 9.2853C31.3388 8.93708 31.6727 8.66888 32.0535 8.50928C32.483 8.35099 32.9385 8.27519 33.3961 8.28588C33.5765 8.28588 33.7801 8.28588 34.0043 8.31088C34.1647 8.32288 34.3241 8.34808 34.481 8.38638L32.6049 18.4985C32.4356 18.5428 32.2633 18.5754 32.0895 18.5962C31.8937 18.6205 31.6967 18.6336 31.4994 18.6353C31.0686 18.651 30.6392 18.5758 30.2393 18.4147C29.9249 18.2699 29.6765 17.9957 29.5486 17.6525C29.3696 17.1519 29.2976 16.6193 29.3373 16.0891Z" fill="white"/>
<path d="M11.1001 5.98554C10.929 5.96636 10.7569 5.95701 10.5847 5.95754H10.1028C8.85402 5.95654 7.60742 6.06212 6.37652 6.27314C5.24112 6.46191 4.12692 6.76113 3.04962 7.16654L2.98002 7.19444L0.436523 20.5534H4.78652L7.00532 8.93374C7.53892 8.94215 8.07162 8.98225 8.60042 9.0538C9.14012 9.1198 9.67302 9.2328 10.193 9.3916L10.3167 9.4307L11.2599 6.00234L11.1001 5.98554Z" fill="white"/>
<path d="M18.4008 5.95759C17.3906 5.93987 16.3836 6.07541 15.4141 6.35959C14.5913 6.60789 13.8299 7.05139 13.1849 7.65789C12.5263 8.30969 11.9998 9.1025 11.6387 9.9863C11.1875 11.0908 10.8625 12.2428 10.6698 13.4203C10.2111 16.0195 10.4121 17.9403 11.2754 19.1352C12.1387 20.3301 13.6797 20.9387 15.8805 20.9387C16.8938 20.9552 17.9039 20.8207 18.8776 20.5395C19.7052 20.2905 20.4717 19.8462 21.1221 19.2385C21.7783 18.5898 22.3046 17.802 22.6683 16.924C23.1232 15.8161 23.4475 14.659 23.6347 13.4761C24.1115 10.8797 23.913 8.95609 23.042 7.76109C22.171 6.56629 20.6196 5.95759 18.4008 5.95759ZM14.7466 16.1591C14.8062 15.2561 14.9233 14.3587 15.0971 13.4733C15.2568 12.5616 15.4702 11.6601 15.7362 10.7736C15.9068 10.1885 16.1473 9.626 16.4526 9.0985C16.6471 8.74969 16.9213 8.46119 17.2489 8.26089C17.533 8.10757 17.8511 8.02791 18.174 8.02919C18.4636 8.01819 18.7503 8.09559 19.0012 8.25249C19.2491 8.44919 19.4223 8.73709 19.4883 9.0622C19.6115 9.6058 19.648 10.1655 19.5965 10.7205C19.5296 11.6232 19.4083 12.521 19.2332 13.4091C19.0746 14.321 18.8612 15.2226 18.5941 16.1088C18.4256 16.6947 18.185 17.2574 17.8777 17.7839C17.6829 18.1315 17.4098 18.4197 17.084 18.6215C16.7987 18.7743 16.4797 18.853 16.1562 18.8504C15.8715 18.8621 15.5896 18.7845 15.3445 18.6271C15.1027 18.4275 14.9338 18.1417 14.8677 17.8202C14.7431 17.2759 14.7022 16.7157 14.7466 16.1591Z" fill="white"/>
<path d="M112.278 8.40062C112.105 7.82772 111.772 7.32732 111.325 6.96832C110.824 6.58352 110.253 6.31892 109.65 6.19222C108.895 6.02649 108.124 5.94781 107.351 5.95772C106.39 5.94206 105.432 6.08255 104.516 6.37372C103.716 6.63692 102.98 7.09092 102.362 7.70262C101.718 8.36062 101.202 9.1513 100.844 10.0282C100.4 11.1183 100.086 12.2569 99.9091 13.4203C99.6821 14.5585 99.6181 15.7232 99.7181 16.8794C99.7941 17.7321 100.092 18.5438 100.579 19.219C101.081 19.8507 101.745 20.308 102.486 20.5339C103.418 20.8232 104.391 20.9599 105.367 20.9388C106.294 20.9449 107.218 20.8343 108.122 20.6093C108.914 20.4106 109.678 20.1123 110.395 19.7215L110.49 19.6685L109.838 17.3317L109.704 17.3931C109.207 17.6323 108.695 17.831 108.171 17.9878C107.637 18.1373 107.084 18.2096 106.529 18.2027C106.118 18.2129 105.709 18.1456 105.323 18.0045C105.016 17.8879 104.747 17.6763 104.55 17.3959C104.335 17.0637 104.196 16.6809 104.145 16.2792C104.074 15.7231 104.074 15.1602 104.145 14.604C104.62 14.604 105.145 14.604 105.712 14.5761C106.326 14.5566 107.021 14.5035 107.774 14.4114C108.342 14.347 108.904 14.2359 109.457 14.0792C109.946 13.9406 110.409 13.7111 110.825 13.4008C111.225 13.0979 111.561 12.7057 111.809 12.2505C112.093 11.7068 112.278 11.1169 112.356 10.5084C112.493 9.8092 112.466 9.0878 112.278 8.40062ZM104.496 12.4041C104.636 11.7132 104.816 11.0326 105.034 10.366C105.188 9.8777 105.399 9.4091 105.663 8.97002C105.839 8.67792 106.074 8.43332 106.351 8.25542C106.585 8.11609 106.852 8.04185 107.124 8.04042C107.299 8.02582 107.475 8.05562 107.637 8.12732C107.8 8.19902 107.944 8.31072 108.06 8.45362C108.271 8.73282 108.318 9.2632 108.209 10.0366C108.101 10.8099 107.877 11.3767 107.557 11.6894C107.115 12.0545 106.582 12.2666 106.027 12.298C105.73 12.3343 105.434 12.3594 105.15 12.3789C104.931 12.3929 104.71 12.4013 104.496 12.4041Z" fill="white"/>
<path d="M100.409 6.368H97.3831L97.7261 4.75999C97.8861 3.96979 98.1001 3.4226 98.3601 3.1323C98.5081 2.9843 98.6831 2.8705 98.8731 2.7981C99.0631 2.7256 99.2641 2.6958 99.4661 2.7107C99.7451 2.70951 100.023 2.74518 100.293 2.8168C100.518 2.8742 100.738 2.9537 100.95 3.0541L101.071 3.1127L101.898 0.9547L101.8 0.8932C101.366 0.63652 100.905 0.43044 100.424 0.279C99.7701 0.0800903 99.0891 -0.0141077 98.4061 -0.000104733C96.9711 -0.000104733 95.8451 0.3349 95.0561 0.9994C94.2681 1.6639 93.7241 2.76389 93.4381 4.26309L93.0281 6.38209L91.3631 6.6278L90.9331 8.7775H92.5751L90.3741 20.3804C90.2161 21.2669 89.9751 22.1363 89.6521 22.9769C89.2991 23.8143 88.8121 24.5778 88.2141 25.2327L88.1421 25.3136L89.1861 26.9888L89.2761 26.9608C90.8221 26.4806 92.0441 25.7129 92.9041 24.6771C93.7651 23.6413 94.3731 22.2147 94.7081 20.4335L96.9321 8.7663H99.9061L100.409 6.368Z" fill="white"/>
<path d="M89.5131 9.439L90.454 6.00223L90.2971 5.98553C90.1301 5.96668 89.9621 5.95733 89.7941 5.95753H89.3021C88.0521 5.95635 86.8051 6.0619 85.5731 6.27303C84.4381 6.46215 83.3231 6.7614 82.2461 7.16653L82.1761 7.19443L79.6331 20.5534H83.9831L86.202 8.93373C86.735 8.94213 87.2681 8.98223 87.7971 9.0537C88.3381 9.1195 88.8711 9.2326 89.3921 9.3916L89.5131 9.439Z" fill="white"/>
<path d="M50.6569 0.32666L49.5256 6.25936C49.1548 6.17964 48.7819 6.11071 48.4072 6.05266C48.0012 5.99042 47.5911 5.9587 47.1805 5.95776C46.2559 5.94297 45.335 6.07875 44.4541 6.35976C43.673 6.61926 42.9572 7.06906 42.3615 7.67476C41.7309 8.34436 41.2245 9.1385 40.8694 10.0144C40.4254 11.1212 40.0972 12.2711 39.8902 13.4456C39.398 16.0839 39.6016 18.013 40.4984 19.18C41.3952 20.347 42.9285 20.9389 45.0622 20.9389C46.1202 20.9424 47.1769 20.8602 48.2217 20.6932C49.2458 20.5231 50.2574 20.2843 51.2496 19.9785L51.3269 19.9562L55.03 0.32946L50.6569 0.32666ZM46.7244 18.5965C46.1069 18.7082 45.4732 18.6457 44.8844 18.4151C44.5713 18.2682 44.3235 17.9947 44.1938 17.6529C44.0183 17.1515 43.9498 16.6189 43.9928 16.0895C44.0409 15.2183 44.1538 14.3529 44.3304 13.5014C44.4865 12.6119 44.7 11.7334 44.9695 10.8715C45.1385 10.3002 45.3955 9.7641 45.7297 9.2857C45.9806 8.93766 46.3136 8.66946 46.6935 8.50956C47.123 8.35149 47.5785 8.2757 48.0361 8.28616C48.2182 8.28616 48.4218 8.29456 48.6469 8.31136C48.8075 8.32373 48.9669 8.34891 49.1236 8.38666L47.2218 18.4988C47.0583 18.5422 46.8921 18.5748 46.7244 18.5965Z" fill="white"/>
<path d="M75.3761 6.3679L73.0251 18.6744C72.7681 18.7051 72.5331 18.7303 72.3061 18.7442C72.0801 18.7582 71.7911 18.7721 71.5331 18.7721C70.7941 18.7721 70.2991 18.5823 70.0641 18.2138C69.8301 17.8452 69.7941 17.1557 69.9721 16.2148L71.8191 6.3679H67.4381L65.7171 15.5503C65.3741 17.3371 65.5881 18.6968 66.3561 19.5957C67.1241 20.4947 68.5491 20.9358 70.6111 20.9358C71.7001 20.9316 72.7871 20.8383 73.8601 20.6566C74.9541 20.4737 76.0371 20.2267 77.1021 19.9168L77.1801 19.8917L79.7571 6.3623L75.3761 6.3679Z" fill="white"/>
<path d="M62.918 6.30372C62.151 6.0653 61.351 5.94849 60.548 5.95752C59.001 5.95752 57.775 6.30092 56.917 6.98212C56.03 7.70262 55.434 8.76542 55.252 9.9498C55.09 10.6816 55.105 11.4412 55.293 12.1665C55.46 12.7131 55.743 13.2095 56.12 13.6155C56.482 13.9981 56.898 14.3157 57.352 14.5564C57.79 14.7909 58.208 15.0282 58.592 15.2627C58.928 15.459 59.232 15.7125 59.494 16.0137C59.597 16.1442 59.67 16.2992 59.707 16.4661C59.744 16.633 59.744 16.8071 59.707 16.9741C59.685 17.149 59.632 17.3183 59.548 17.4734C59.466 17.6247 59.356 17.7586 59.223 17.8675C58.952 18.0853 58.481 18.1969 57.824 18.1969C57.249 18.1959 56.678 18.0958 56.136 17.901C55.603 17.7137 55.092 17.4703 54.6099 17.1751L54.4888 17.0998L53.4194 19.5426L53.5173 19.6096C54.1941 20.0361 54.924 20.3548 55.685 20.5561C56.574 20.8108 57.494 20.9395 58.419 20.9385C59.867 20.9385 61.055 20.6091 61.947 19.9586C62.839 19.3081 63.434 18.264 63.692 16.8652C63.851 16.1556 63.836 15.4181 63.648 14.7155C63.481 14.1769 63.197 13.6895 62.82 13.2945C62.452 12.9151 62.034 12.598 61.578 12.3536C61.153 12.1257 60.734 11.8855 60.323 11.6333C59.986 11.4322 59.681 11.1809 59.419 10.8879C59.311 10.7622 59.234 10.6128 59.194 10.4518C59.154 10.2881 59.151 10.1174 59.187 9.9526C59.206 9.7755 59.258 9.6037 59.341 9.446C59.423 9.2901 59.534 9.1538 59.666 9.0453C60.038 8.80482 60.469 8.69462 60.901 8.72982C61.436 8.72421 61.969 8.80526 62.478 8.96982C62.904 9.1046 63.319 9.2793 63.717 9.492L63.838 9.5618L64.823 7.18032L64.725 7.11892C64.159 6.77387 63.552 6.50007 62.918 6.30372Z" fill="white"/>
<path d="M149.691 16.2092C148.021 16.2455 146.341 17.9123 144.826 18.56C142.69 19.4757 140.187 19.2691 139.793 16.4382C139.729 15.9747 139.724 14.9585 139.937 14.4839C140.602 12.9986 141.401 13.7189 142.53 13.4174C143.409 13.1801 144.334 12.9679 144.501 11.7646C144.787 9.7656 141.94 9.1542 140.636 9.1766C138.574 9.2156 136.77 10.4078 135.206 11.7506C134.191 12.6217 133.281 13.6212 132.32 14.5593C131.359 15.4973 129.227 18.0351 127.681 16.1953C126.998 15.3745 127.166 13.8445 127.344 12.8897C127.707 11.2278 128.52 9.7212 129.678 8.56237C131.503 6.73637 133.325 6.88717 135.492 6.23667C136.577 5.91287 137.296 5.11997 136.675 3.80777C135.773 1.89257 132.459 0.83727 130.707 0.46877C128.324 -0.0387287 125.86 0.12567 123.553 0.94617C117.435 3.12657 114.533 9.5674 113.183 15.9496C112.866 17.4516 111.691 20.1681 113.562 20.7264C115.038 21.1676 116.44 20.7851 116.912 19.2719C116.923 19.2489 116.931 19.2245 116.935 19.1993C116.937 19.1807 116.937 19.162 116.935 19.1435C117.466 15.1037 118.432 10.9215 120.816 7.66617C123.032 4.66487 126.741 3.07077 130.078 3.82457C128.803 4.47797 127.668 5.41277 126.746 6.56897C124.39 9.492 122.437 14.7184 124.54 18.3618C126.058 20.9973 128.998 20.9191 131.341 19.699C132.987 18.8392 134.634 16.6001 136.391 14.9054C136.352 15.212 136.329 15.5204 136.322 15.8295C136.224 21.2541 140.605 22.8092 144.725 21.3658C146.341 20.8074 149.364 19.6683 150.462 18.0826C151.207 16.9993 150.934 16.1925 149.691 16.2092Z" fill="white"/>
</svg>
